{
DisplayStrings = (
"Shop Talk Talk Shop"
);
date = "2018-02-09 14:56:29 +0000";
designer = Barbershop;
designerURL = "https://barbershop.io";
familyName = "York and Steele-01-002";
featurePrefixes = (
{
automatic = 1;
code = "languagesystem DFLT dflt;\012languagesystem latn dflt;\012";
name = Languagesystems;
}
);
fontMaster = (
{
ascender = 530;
capHeight = 530;
descender = 0;
id = "A1E69DBF-18C0-4169-967F-86875897C8D1";
xHeight = 312;
}
);
glyphs = (
{
glyphname = A;
lastChange = "2018-02-13 15:28:34 +0000";
layers = (
{
layerId = "A1E69DBF-18C0-4169-967F-86875897C8D1";
name = Regular;
paths = (
{
closed = 1;
nodes = (
"127.5 530 LINE",
"0 31.5547 LINE",
"0 0 LINE",
"89.8018 0 LINE",
"220.005 514.225 LINE",
"216.068 530 LINE"
);
},
{
closed = 1;
nodes = (
"241.494 429.224 LINE",
"192.042 237.194 LINE",
"214.333 149.008 LINE",
"170.652 149.008 LINE",
"146.851 55.0078 LINE",
"238.093 55.0078 LINE",
"251.998 0 LINE",
"350 0 LINE"
);
}
);
width = 435;
}
);
unicode = 0041;
},
{
glyphname = B;
lastChange = "2018-02-09 15:20:09 +0000";
layers = (
{
layerId = "A1E69DBF-18C0-4169-967F-86875897C8D1";
name = Regular;
paths = (
{
closed = 1;
nodes = (
"137 530 LINE",
"137 436 LINE",
"230.362 436 LINE SMOOTH",
"247.8 436 OFFCURVE",
"255.014 429.348 OFFCURVE",
"255.014 411.348 CURVE SMOOTH",
"255.014 338.508 LINE SMOOTH",
"255.014 322.652 OFFCURVE",
"244.8 312 OFFCURVE",
"229.3 312 CURVE SMOOTH",
"95 312 LINE",
"95 530 LINE",
"0 530 LINE",
"0 0 LINE",
"95 0 LINE",
"95 218 LINE",
"229.3 218 LINE SMOOTH",
"244.8 218 OFFCURVE",
"255.014 207.348 OFFCURVE",
"255.014 191.491 CURVE SMOOTH",
"255.014 118.652 LINE SMOOTH",
"255.014 100.652 OFFCURVE",
"247.8 94 OFFCURVE",
"230.362 94 CURVE SMOOTH",
"137 94 LINE",
"137 0 LINE",
"255 0 LINE SMOOTH",
"324.799 0 OFFCURVE",
"350.014 23.6519 OFFCURVE",
"350.014 95.0132 CURVE SMOOTH",
"350.014 207.861 LINE SMOOTH",
"350.014 233.757 OFFCURVE",
"339.615 254.733 OFFCURVE",
"319.959 265 CURVE",
"338.357 274.61 OFFCURVE",
"348.632 293.609 OFFCURVE",
"349.872 317.239 CURVE",
"350.014 317.207 LINE",
"350.014 434.986 LINE SMOOTH",
"350.014 506.348 OFFCURVE",
"324.799 530 OFFCURVE",
"255 530 CURVE SMOOTH"
);
}
);
width = 445;
}
);
unicode = 0042;
},
{
glyphname = C;
lastChange = "2018-02-13 15:19:58 +0000";
layers = (
{
layerId = "A1E69DBF-18C0-4169-967F-86875897C8D1";
name = Regular;
paths = (
{
closed = 1;
nodes = (
"255.014 145.29 LINE",
"255.014 126.514 LINE",
"255.027 126.508 LINE",
"255.025 103.65 OFFCURVE",
"244.964 94 OFFCURVE",
"222.514 94 CURVE SMOOTH",
"196.014 94 LINE",
"196.014 0 LINE",
"263.945 0 LINE",
"263.939 0.012207 LINE",
"316.206 0.272461 OFFCURVE",
"350.027 36.3345 OFFCURVE",
"350.027 86.6519 CURVE",
"350.014 86.6621 LINE",
"350.014 145.29 LINE"
);
},
{
closed = 1;
nodes = (
"0 86.6519 LINE SMOOTH",
"0 36.1519 OFFCURVE",
"34.0615 0 OFFCURVE",
"86.6519 0 CURVE SMOOTH",
"154.583 0 LINE",
"154.583 94 LINE",
"127.514 94 LINE SMOOTH",
"105.062 94 OFFCURVE",
"95 103.652 OFFCURVE",
"95 126.514 CURVE SMOOTH",
"95 403.486 LINE SMOOTH",
"95 426.348 OFFCURVE",
"105.062 436 OFFCURVE",
"127.514 436 CURVE SMOOTH",
"154.583 436 LINE",
"154.583 530 LINE",
"86.6519 530 LINE SMOOTH",
"34.0615 530 OFFCURVE",
"0 493.848 OFFCURVE",
"0 443.348 CURVE SMOOTH"
);
},
{
closed = 1;
nodes = (
"255.014 403.486 LINE",
"255.014 384.71 LINE",
"350.014 384.71 LINE",
"350.014 443.338 LINE",
"350.027 443.348 LINE",
"350.027 493.666 OFFCURVE",
"316.206 529.728 OFFCURVE",
"263.939 529.988 CURVE",
"263.945 530 LINE",
"196.014 530 LINE",
"196.014 436 LINE",
"222.514 436 LINE SMOOTH",
"244.964 436 OFFCURVE",
"255.025 426.35 OFFCURVE",
"255.027 403.492 CURVE"
);
}
);
width = 435;
}
);
unicode = 0043;
},
{
glyphname = D;
lastChange = "2018-02-09 15:20:09 +0000";
layers = (
{
layerId = "A1E69DBF-18C0-4169-967F-86875897C8D1";
name = Regular;
paths = (
{
closed = 1;
nodes = (
"95 0 LINE",
"95 530 LINE",
"0 530 LINE",
"0 0 LINE"
);
},
{
closed = 1;
nodes = (
"137 530 LINE",
"137 436 LINE",
"230.362 436 LINE SMOOTH",
"247.8 436 OFFCURVE",
"255.014 429.348 OFFCURVE",
"255.014 411.348 CURVE SMOOTH",
"255.014 118.652 LINE SMOOTH",
"255.014 100.652 OFFCURVE",
"247.8 94 OFFCURVE",
"230.362 94 CURVE SMOOTH",
"137 94 LINE",
"137 0 LINE",
"255 0 LINE SMOOTH",
"324.8 0 OFFCURVE",
"350.014 23.6519 OFFCURVE",
"350.014 95.0132 CURVE SMOOTH",
"350.014 434.986 LINE SMOOTH",
"350.014 506.348 OFFCURVE",
"324.8 530 OFFCURVE",
"255 530 CURVE SMOOTH"
);
}
);
width = 445;
}
);
unicode = 0044;
},
{
glyphname = E;
lastChange = "2018-02-13 15:25:04 +0000";
layers = (
{
layerId = "A1E69DBF-18C0-4169-967F-86875897C8D1";
name = Regular;
paths = (
{
closed = 1;
nodes = (
"95 312 LINE",
"95 530 LINE",
"0 530 LINE",
"0 0 LINE",
"95 0 LINE",
"95 218 LINE",
"229.3 218 LINE",
"229.3 312 LINE"
);
},
{
closed = 1;
nodes = (
"137 530 LINE",
"137 436 LINE",
"330.611 436 LINE",
"330.611 530 LINE"
);
},
{
closed = 1;
nodes = (
"137 0 LINE",
"350.014 0 LINE",
"350.014 94 LINE",
"137 94 LINE"
);
}
);
width = 425;
}
);
unicode = 0045;
},
{
glyphname = F;
lastChange = "2018-02-13 15:25:02 +0000";
layers = (
{
layerId = "A1E69DBF-18C0-4169-967F-86875897C8D1";
name = Regular;
paths = (
{
closed = 1;
nodes = (
"0 530 LINE",
"0 0 LINE",
"95 0 LINE",
"95 218 LINE",
"229 218 LINE",
"229 312 LINE",
"95 312 LINE",
"95 530 LINE"
);
},
{
closed = 1;
nodes = (
"137 436 LINE",
"350 436 LINE",
"350 530 LINE",
"137 530 LINE"
);
}
);
width = 425;
}
);
unicode = 0046;
},
{
glyphname = G;
lastChange = "2018-02-09 15:20:09 +0000";
layers = (
{
layerId = "A1E69DBF-18C0-4169-967F-86875897C8D1";
name = Regular;
paths = (
{
closed = 1;
nodes = (
"175.014 191 LINE",
"255.014 191 LINE",
"255.014 126.514 LINE",
"255.027 126.508 LINE",
"255.026 103.65 OFFCURVE",
"244.964 94 OFFCURVE",
"222.514 94 CURVE SMOOTH",
"196.014 94 LINE",
"196.014 0 LINE",
"263.945 0 LINE",
"263.939 0.012207 LINE",
"316.206 0.272461 OFFCURVE",
"350.027 36.3345 OFFCURVE",
"350.027 86.6519 CURVE",
"350.014 86.6621 LINE",
"350.027 285 LINE",
"175.014 285 LINE"
);
},
{
closed = 1;
nodes = (
"0 86.6519 LINE SMOOTH",
"0 36.1519 OFFCURVE",
"34.0615 0 OFFCURVE",
"86.6519 0 CURVE SMOOTH",
"154.583 0 LINE",
"154.583 94 LINE",
"127.514 94 LINE SMOOTH",
"105.062 94 OFFCURVE",
"95 103.652 OFFCURVE",
"95 126.514 CURVE SMOOTH",
"95 403.486 LINE SMOOTH",
"95 426.348 OFFCURVE",
"105.062 436 OFFCURVE",
"127.514 436 CURVE SMOOTH",
"154.583 436 LINE",
"154.583 530 LINE",
"86.6519 530 LINE SMOOTH",
"34.0615 530 OFFCURVE",
"0 493.848 OFFCURVE",
"0 443.348 CURVE SMOOTH"
);
},
{
closed = 1;
nodes = (
"255.014 403.486 LINE",
"255.014 384.71 LINE",
"350.014 384.71 LINE",
"350.014 443.338 LINE",
"350.027 443.348 LINE",
"350.027 493.666 OFFCURVE",
"316.206 529.728 OFFCURVE",
"263.939 529.988 CURVE",
"263.945 530 LINE",
"196.014 530 LINE",
"196.014 436 LINE",
"222.514 436 LINE SMOOTH",
"244.964 436 OFFCURVE",
"255.026 426.35 OFFCURVE",
"255.027 403.492 CURVE"
);
}
);
width = 445;
}
);
unicode = 0047;
},
{
glyphname = H;
lastChange = "2018-02-09 15:20:09 +0000";
layers = (
{
layerId = "A1E69DBF-18C0-4169-967F-86875897C8D1";
name = Regular;
paths = (
{
closed = 1;
nodes = (
"95 0 LINE",
"95 530 LINE",
"0 530 LINE",
"0 0 LINE"
);
},
{
closed = 1;
nodes = (
"255.012 312 LINE",
"137 312 LINE",
"137 218 LINE",
"255.012 218 LINE",
"255.012 0 LINE",
"350.012 0 LINE",
"350.012 530 LINE",
"255.012 530 LINE"
);
}
);
width = 445;
}
);
unicode = 0048;
},
{
glyphname = I;
lastChange = "2018-02-13 15:27:15 +0000";
layers = (
{
layerId = "A1E69DBF-18C0-4169-967F-86875897C8D1";
name = Regular;
paths = (
{
closed = 1;
nodes = (
"20 530 LINE",
"20 0 LINE",
"115 0 LINE",
"115 530 LINE"
);
}
);
width = 250;
}
);
unicode = 0049;
},
{
glyphname = J;
lastChange = "2018-02-09 15:20:09 +0000";
layers = (
{
layerId = "A1E69DBF-18C0-4169-967F-86875897C8D1";
name = Regular;
paths = (
{
closed = 1;
nodes = (
"350.014 86.6616 LINE",
"350.014 530 LINE",
"255.014 530 LINE",
"255.014 126.514 LINE",
"255.027 126.508 LINE",
"255.025 103.65 OFFCURVE",
"244.964 94 OFFCURVE",
"222.514 94 CURVE SMOOTH",
"196.014 94 LINE",
"196.014 0 LINE",
"263.945 0 LINE",
"263.939 0.012207 LINE",
"316.206 0.272461 OFFCURVE",
"350.027 36.3345 OFFCURVE",
"350.027 86.6519 CURVE"
);
},
{
closed = 1;
nodes = (
"95 182.168 LINE",
"0 182.168 LINE",
"0 86.6519 LINE SMOOTH",
"0 36.1519 OFFCURVE",
"34.0615 0 OFFCURVE",
"86.6519 0 CURVE SMOOTH",
"154.583 0 LINE",
"154.583 94 LINE",
"127.514 94 LINE SMOOTH",
"105.062 94 OFFCURVE",
"95 103.652 OFFCURVE",
"95 126.514 CURVE SMOOTH"
);
}
);
width = 445;
}
);
unicode = 004A;
},
{
glyphname = K;
lastChange = "2018-02-13 15:20:04 +0000";
layers = (
{
layerId = "A1E69DBF-18C0-4169-967F-86875897C8D1";
name = Regular;
paths = (
{
closed = 1;
nodes = (
"95 0 LINE",
"95 530 LINE",
"0 530 LINE",
"0 0 LINE"
);
},
{
closed = 1;
nodes = (
"263.945 312 LINE",
"238.483 312 LINE",
"348.81 530 LINE",
"246.665 530 LINE",
"136.999 312 LINE",
"136.999 280.445 LINE",
"136.999 218 LINE",
"222.514 218 LINE SMOOTH",
"244.964 218 OFFCURVE",
"255.026 208.35 OFFCURVE",
"255.027 185.492 CURVE",
"255.014 185.487 LINE",
"255.014 0 LINE",
"350.014 0 LINE",
"350.014 225.338 LINE",
"350.027 225.349 LINE",
"350.027 275.666 OFFCURVE",
"316.206 311.728 OFFCURVE",
"263.939 311.988 CURVE"
);
}
);
width = 435;
}
);
unicode = 004B;
},
{
glyphname = L;
lastChange = "2018-02-13 15:25:58 +0000";
layers = (
{
layerId = "A1E69DBF-18C0-4169-967F-86875897C8D1";
name = Regular;
paths = (
{
closed = 1;
nodes = (
"95 0 LINE",
"95 530 LINE",
"0 530 LINE",
"0 0 LINE"
);
},
{
closed = 1;
nodes = (
"137 0 LINE",
"350.014 0 LINE",
"350.014 94 LINE",
"137 94 LINE"
);
}
);
width = 425;
}
);
unicode = 004C;
},
{
glyphname = M;
lastChange = "2018-02-09 15:20:21 +0000";
layers = (
{
layerId = "A1E69DBF-18C0-4169-967F-86875897C8D1";
name = Regular;
paths = (
{
closed = 1;
nodes = (
"95 0 LINE",
"95 164.885 LINE",
"0 522.713 LINE",
"0 0 LINE"
);
},
{
closed = 1;
nodes = (
"350 0 LINE",
"445 0 LINE",
"445 501.696 LINE",
"350 145.997 LINE"
);
},
{
closed = 1;
nodes = (
"178.548 0 LINE",
"276.82 0 LINE",
"134.338 530 LINE",
"37.8379 530 LINE"
);
},
{
closed = 1;
nodes = (
"243.099 271.647 LINE",
"291.784 88.2686 LINE",
"409.059 530 LINE",
"312.559 530 LINE"
);
}
);
width = 545;
}
);
unicode = 004D;
},
{
glyphname = N;
lastChange = "2018-02-09 15:20:09 +0000";
layers = (
{
layerId = "A1E69DBF-18C0-4169-967F-86875897C8D1";
name = Regular;
paths = (
{
closed = 1;
nodes = (
"261.914 0 LINE",
"350.014 0 LINE",
"350.014 34.5107 LINE",
"116.76 530 LINE",
"14.1858 530 LINE"
);
},
{
closed = 1;
nodes = (
"95 0 LINE",
"95 266.668 LINE",
"0 469.93 LINE",
"0 0 LINE"
);
},
{
closed = 1;
nodes = (
"255.014 328.192 LINE",
"350.014 125.646 LINE",
"350.014 530 LINE",
"255.014 530 LINE"
);
}
);
width = 445;
}
);
unicode = 004E;
},
{
glyphname = O;
lastChange = "2018-02-09 15:20:09 +0000";
layers = (
{
layerId = "A1E69DBF-18C0-4169-967F-86875897C8D1";
name = Regular;
paths = (
{
closed = 1;
nodes = (
"350.027 443.349 LINE",
"350.027 493.666 OFFCURVE",
"316.206 529.728 OFFCURVE",
"263.939 529.988 CURVE",
"263.945 530 LINE",
"196.014 530 LINE",
"196.014 436 LINE",
"222.514 436 LINE SMOOTH",
"244.642 436 OFFCURVE",
"254.728 426.615 OFFCURVE",
"255.014 404.457 CURVE SMOOTH",
"255.014 403.487 LINE",
"255.014 126.514 LINE",
"255.027 126.508 LINE",
"255.026 103.65 OFFCURVE",
"244.964 94 OFFCURVE",
"222.514 94 CURVE SMOOTH",
"222.514 94 LINE",
"196.014 94 LINE",
"196.014 0 LINE",
"263.945 0 LINE",
"263.939 0.0126953 LINE",
"316.206 0.272461 OFFCURVE",
"350.027 36.3345 OFFCURVE",
"350.027 86.6523 CURVE",
"350.014 86.6621 LINE",
"350.014 443.338 LINE"
);
},
{
closed = 1;
nodes = (
"0 86.6523 LINE SMOOTH",
"0 36.1523 OFFCURVE",
"34.0615 0 OFFCURVE",
"86.6519 0 CURVE",
"86.6519 0 LINE",
"154.583 0 LINE",
"154.583 94 LINE",
"127.514 94 LINE",
"127.514 94 LINE",
"127.514 94 LINE SMOOTH",
"105.062 94 OFFCURVE",
"95 103.652 OFFCURVE",
"95 126.514 CURVE SMOOTH",
"95 403.487 LINE SMOOTH",
"95 426.349 OFFCURVE",
"105.062 436 OFFCURVE",
"127.514 436 CURVE SMOOTH",
"154.583 436 LINE",
"154.583 530 LINE",
"86.6519 530 LINE SMOOTH",
"34.0615 530 OFFCURVE",
"0 493.849 OFFCURVE",
"0 443.349 CURVE SMOOTH"
);
}
);
width = 445;
}
);
unicode = 004F;
},
{
glyphname = P;
lastChange = "2018-02-13 15:20:13 +0000";
layers = (
{
layerId = "A1E69DBF-18C0-4169-967F-86875897C8D1";
name = Regular;
paths = (
{
closed = 1;
nodes = (
"95 0 LINE",
"95 530 LINE",
"0 530 LINE",
"0 0 LINE"
);
},
{
closed = 1;
nodes = (
"137 530 LINE",
"137 436 LINE",
"230 436 LINE SMOOTH",
"248 436 OFFCURVE",
"255 429 OFFCURVE",
"255 411 CURVE SMOOTH",
"255 339 LINE SMOOTH",
"255 321 OFFCURVE",
"248 314 OFFCURVE",
"230 314 CURVE SMOOTH",
"137 314 LINE",
"137 220 LINE",
"255 220 LINE SMOOTH",
"324 220 OFFCURVE",
"350 243 OFFCURVE",
"350 314 CURVE",
"350 314 LINE",
"350 435 LINE SMOOTH",
"350 506 OFFCURVE",
"325 530 OFFCURVE",
"255 530 CURVE SMOOTH"
);
}
);
width = 425;
}
);
unicode = 0050;
},
{
glyphname = Q;
lastChange = "2018-02-09 15:20:09 +0000";
layers = (
{
layerId = "A1E69DBF-18C0-4169-967F-86875897C8D1";
name = Regular;
paths = (
{
closed = 1;
nodes = (
"0 87 LINE SMOOTH",
"0 36 OFFCURVE",
"34 0 OFFCURVE",
"87 0 CURVE",
"87 0 LINE",
"155 0 LINE",
"155 94 LINE",
"128 94 LINE",
"128 94 LINE",
"128 94 LINE SMOOTH",
"105 94 OFFCURVE",
"95 104 OFFCURVE",
"95 127 CURVE SMOOTH",
"95 404 LINE SMOOTH",
"95 426 OFFCURVE",
"105 436 OFFCURVE",
"128 436 CURVE SMOOTH",
"155 436 LINE",
"155 530 LINE",
"87 530 LINE SMOOTH",
"34 530 OFFCURVE",
"0 494 OFFCURVE",
"0 443 CURVE SMOOTH"
);
},
{
closed = 1;
nodes = (
"349 72 OFFCURVE",
"350 79 OFFCURVE",
"350 87 CURVE",
"350 87 LINE",
"350 443 LINE",
"350 443 LINE",
"350 494 OFFCURVE",
"316 530 OFFCURVE",
"264 530 CURVE",
"264 530 LINE",
"196 530 LINE",
"196 436 LINE",
"223 436 LINE SMOOTH",
"245 436 OFFCURVE",
"255 427 OFFCURVE",
"255 405 CURVE SMOOTH",
"255 404 LINE",
"255 127 LINE",
"255 127 LINE",
"255 104 OFFCURVE",
"245 94 OFFCURVE",
"223 94 CURVE SMOOTH",
"223 94 LINE",
"196 94 LINE",
"196 0 LINE",
"264 0 LINE",
"264 0 LINE",
"269 0 OFFCURVE",
"273 0 OFFCURVE",
"278 1 CURVE",
"323 -44 LINE",
"389 23 LINE",
"348 65 LINE"
);
}
);
width = 445;
}
);
unicode = 0051;
},
{
glyphname = R;
lastChange = "2018-02-13 15:51:18 +0000";
layers = (
{
layerId = "A1E69DBF-18C0-4169-967F-86875897C8D1";
name = Regular;
paths = (
{
closed = 1;
nodes = (
"95 0 LINE",
"95 530 LINE",
"0 530 LINE",
"0 0 LINE"
);
},
{
closed = 1;
nodes = (
"328.616 224.225 OFFCURVE",
"349.791 249.343 OFFCURVE",
"350.008 313.871 CURVE",
"350.014 313.87 LINE",
"350.014 434.987 LINE SMOOTH",
"350.014 506.349 OFFCURVE",
"324.799 530 OFFCURVE",
"255 530 CURVE SMOOTH",
"137 530 LINE",
"137 436 LINE",
"230.362 436 LINE SMOOTH",
"247.8 436 OFFCURVE",
"255.014 429.349 OFFCURVE",
"255.014 411.349 CURVE SMOOTH",
"255.014 338.509 LINE SMOOTH",
"255.014 320.509 OFFCURVE",
"247.8 313.857 OFFCURVE",
"230.362 313.857 CURVE SMOOTH",
"137 313.857 LINE",
"137 219.857 LINE",
"170.748 219.857 LINE",
"256.047 0 LINE",
"357.417 0 LINE",
"271.895 220.393 LINE"
);
}
);
width = 435;
}
);
unicode = 0052;
},
{
glyphname = S;
lastChange = "2018-02-15 15:40:11 +0000";
layers = (
{
layerId = "A1E69DBF-18C0-4169-967F-86875897C8D1";
name = Regular;
paths = (
{
closed = 1;
nodes = (
"95.0132 218 LINE SMOOTH",
"25.5435 218 OFFCURVE",
"0.242676 241.437 OFFCURVE",
"0.00537109 312.014 CURVE SMOOTH",
"0 434.987 LINE SMOOTH",
"0 506.349 OFFCURVE",
"38 530 OFFCURVE",
"95 530 CURVE",
"263 530 LINE",
"316 530 OFFCURVE",
"350 494 OFFCURVE",
"350 443 CURVE SMOOTH",
"350 393 LINE",
"255 393 LINE",
"255 403.486 LINE SMOOTH",
"255 426.348 OFFCURVE",
"244.938 436 OFFCURVE",
"222.486 436 CURVE SMOOTH",
"119.651 436 LINE SMOOTH",
"102.213 436 OFFCURVE",
"95 429.349 OFFCURVE",
"95 411.349 CURVE SMOOTH",
"95 336.652 LINE SMOOTH",
"95 318.652 OFFCURVE",
"102.213 312 OFFCURVE",
"119.651 312 CURVE SMOOTH",
"154 312 LINE",
"154 218 LINE"
);
},
{
closed = 1;
nodes = (
"34.0615 0 OFFCURVE",
"0 36.1523 OFFCURVE",
"0 86.6523 CURVE SMOOTH",
"0 137 LINE",
"95 137 LINE",
"95 126.514 LINE SMOOTH",
"95 103.652 OFFCURVE",
"105.062 94 OFFCURVE",
"127.513 94 CURVE SMOOTH",
"230.348 94 LINE SMOOTH",
"247.786 94 OFFCURVE",
"255 100.652 OFFCURVE",
"255 118.652 CURVE SMOOTH",
"255 193.349 LINE SMOOTH",
"255 211.349 OFFCURVE",
"247.786 218 OFFCURVE",
"230.348 218 CURVE SMOOTH",
"196 218 LINE",
"196 312 LINE",
"254.986 312 LINE SMOOTH",
"324.456 312 OFFCURVE",
"349.757 288.564 OFFCURVE",
"349.994 217.986 CURVE SMOOTH",
"350 95.0137 LINE SMOOTH",
"350 23.6519 OFFCURVE",
"324.786 0 OFFCURVE",
"254.986 0 CURVE SMOOTH",
"86.6514 0 LINE SMOOTH"
);
}
);
width = 445;
}
);
unicode = 0053;
},
{
glyphname = T;
lastChange = "2018-02-13 15:27:55 +0000";
layers = (
{
layerId = "A1E69DBF-18C0-4169-967F-86875897C8D1";
name = Regular;
paths = (
{
closed = 1;
nodes = (
"222.5 0 LINE",
"222.5 393.997 LINE",
"127.5 393.997 LINE",
"127.5 0 LINE"
);
},
{
closed = 1;
nodes = (
"0 436 LINE",
"350 436 LINE",
"350 530 LINE",
"0 530 LINE"
);
}
);
width = 420;
}
);
unicode = 0054;
},
{
glyphname = U;
lastChange = "2018-02-09 15:20:09 +0000";
layers = (
{
layerId = "A1E69DBF-18C0-4169-967F-86875897C8D1";
name = Regular;
paths = (
{
closed = 1;
nodes = (
"350.014 86.6621 LINE",
"350.014 530 LINE",
"255.014 530 LINE",
"255.014 126.514 LINE",
"255.027 126.508 LINE",
"255.026 103.65 OFFCURVE",
"244.964 94 OFFCURVE",
"222.514 94 CURVE SMOOTH",
"222.514 94 LINE",
"196.014 94 LINE",
"196.014 0 LINE",
"263.945 0 LINE",
"263.939 0.0124512 LINE",
"316.206 0.272461 OFFCURVE",
"350.027 36.3345 OFFCURVE",
"350.027 86.6519 CURVE"
);
},
{
closed = 1;
nodes = (
"105.062 94 OFFCURVE",
"95 103.652 OFFCURVE",
"95 126.514 CURVE SMOOTH",
"95 530 LINE",
"0 530 LINE",
"0 86.6519 LINE SMOOTH",
"0 36.1519 OFFCURVE",
"34.0615 0 OFFCURVE",
"86.6519 0 CURVE",
"86.6519 0 LINE",
"154.583 0 LINE",
"154.583 94 LINE",
"127.514 94 LINE SMOOTH"
);
}
);
width = 445;
}
);
unicode = 0055;
},
{
glyphname = V;
lastChange = "2018-02-13 15:21:10 +0000";
layers = (
{
layerId = "A1E69DBF-18C0-4169-967F-86875897C8D1";
name = Regular;
paths = (
{
closed = 1;
nodes = (
"0 498.445 LINE",
"127.5 0 LINE",
"216.067 0 LINE",
"220.005 15.7749 LINE",
"89.8018 530 LINE",
"0 530 LINE"
);
},
{
closed = 1;
nodes = (
"192.042 292.806 LINE",
"241.493 100.776 LINE",
"350 530 LINE",
"251.998 530 LINE"
);
}
);
width = 395;
}
);
unicode = 0056;
},
{
glyphname = W;
lastChange = "2018-02-13 15:22:47 +0000";
layers = (
{
layerId = "A1E69DBF-18C0-4169-967F-86875897C8D1";
name = Regular;
paths = (
{
closed = 1;
nodes = (
"0 498.445 LINE",
"127.5 0 LINE",
"216.067 0 LINE",
"220.005 15.7749 LINE",
"89.8015 530 LINE",
"0 530 LINE"
);
},
{
closed = 1;
nodes = (
"192.042 292.806 LINE",
"241.493 100.776 LINE",
"350 530 LINE",
"251.998 530 LINE"
);
},
{
closed = 1;
nodes = (
"387.698 0 LINE",
"476.266 0 LINE",
"480.203 15.7749 LINE",
"371.188 446.32 LINE",
"322.852 253.507 LINE"
);
},
{
closed = 1;
nodes = (
"452.24 292.806 LINE",
"501.692 100.776 LINE",
"610.198 530 LINE",
"512.196 530 LINE"
);
}
);
width = 670;
}
);
unicode = 0057;
},
{
glyphname = X;
lastChange = "2018-02-13 15:20:21 +0000";
layers = (
{
layerId = "A1E69DBF-18C0-4169-967F-86875897C8D1";
name = Regular;
paths = (
{
closed = 1;
nodes = (
"2.10205 0 LINE",
"106.673 0 LINE",
"358.667 530 LINE",
"253.903 530 LINE"
);
},
{
closed = 1;
nodes = (
"210.336 120.216 LINE",
"267.494 0 LINE",
"372.065 0 LINE",
"262.664 230.272 LINE"
);
},
{
closed = 1;
nodes = (
"104.765 530 LINE",
"0 530 LINE",
"104.022 312 LINE",
"156.061 422.03 LINE"
);
}
);
width = 455;
}
);
unicode = 0058;
},
{
glyphname = Y;
lastChange = "2018-02-13 15:20:30 +0000";
layers = (
{
layerId = "A1E69DBF-18C0-4169-967F-86875897C8D1";
name = Regular;
paths = (
{
closed = 1;
nodes = (
"137.851 271.968 LINE",
"137.855 271.967 LINE",
"137.844 271.968 LINE",
"137.844 0 LINE",
"232.844 0 LINE",
"232.844 253.969 LINE",
"379.905 530 LINE",
"275.162 530 LINE"
);
},
{
closed = 1;
nodes = (
"0 530 LINE",
"113.873 316.314 LINE",
"166.834 413.384 LINE",
"104.777 530 LINE"
);
}
);
width = 445;
}
);
unicode = 0059;
},
{
glyphname = Z;
lastChange = "2018-02-09 15:21:10 +0000";
layers = (
{
layerId = "A1E69DBF-18C0-4169-967F-86875897C8D1";
name = Regular;
paths = (
{
closed = 1;
nodes = (
"0 94 LINE",
"0 0 LINE",
"53 0 LINE",
"350 436 LINE",
"350 530 LINE",
"305 530 LINE"
);
},
{
closed = 1;
nodes = (
"0 530 LINE",
"0 436 LINE",
"187 436 LINE",
"254 530 LINE"
);
},
{
closed = 1;
nodes = (
"350 0 LINE",
"350 94 LINE",
"168 94 LINE",
"104 0 LINE"
);
}
);
width = 445;
}
);
unicode = 005A;
},
{
glyphname = a;
lastChange = "2018-02-13 15:28:33 +0000";
layers = (
{
layerId = "A1E69DBF-18C0-4169-967F-86875897C8D1";
name = Regular;
paths = (
{
closed = 1;
nodes = (
"127.5 530 LINE",
"0 31.5547 LINE",
"0 0 LINE",
"89.8018 0 LINE",
"220.005 514.225 LINE",
"216.068 530 LINE"
);
},
{
closed = 1;
nodes = (
"241.494 429.224 LINE",
"192.042 237.194 LINE",
"214.333 149.008 LINE",
"170.652 149.008 LINE",
"146.851 55.0078 LINE",
"238.093 55.0078 LINE",
"251.998 0 LINE",
"350 0 LINE"
);
}
);
width = 435;
}
);
unicode = 0061;
},
{
glyphname = b;
lastChange = "2018-02-09 15:20:09 +0000";
layers = (
{
layerId = "A1E69DBF-18C0-4169-967F-86875897C8D1";
name = Regular;
paths = (
{
closed = 1;
nodes = (
"137 530 LINE",
"137 436 LINE",
"230.362 436 LINE SMOOTH",
"247.8 436 OFFCURVE",
"255.014 429.348 OFFCURVE",
"255.014 411.348 CURVE SMOOTH",
"255.014 338.508 LINE SMOOTH",
"255.014 322.652 OFFCURVE",
"244.8 312 OFFCURVE",
"229.3 312 CURVE SMOOTH",
"95 312 LINE",
"95 530 LINE",
"0 530 LINE",
"0 0 LINE",
"95 0 LINE",
"95 218 LINE",
"229.3 218 LINE SMOOTH",
"244.8 218 OFFCURVE",
"255.014 207.348 OFFCURVE",
"255.014 191.491 CURVE SMOOTH",
"255.014 118.652 LINE SMOOTH",
"255.014 100.652 OFFCURVE",
"247.8 94 OFFCURVE",
"230.362 94 CURVE SMOOTH",
"137 94 LINE",
"137 0 LINE",
"255 0 LINE SMOOTH",
"324.799 0 OFFCURVE",
"350.014 23.6519 OFFCURVE",
"350.014 95.0132 CURVE SMOOTH",
"350.014 207.861 LINE SMOOTH",
"350.014 233.757 OFFCURVE",
"339.615 254.733 OFFCURVE",
"319.959 265 CURVE",
"338.357 274.61 OFFCURVE",
"348.632 293.609 OFFCURVE",
"349.872 317.239 CURVE",
"350.014 317.207 LINE",
"350.014 434.986 LINE SMOOTH",
"350.014 506.348 OFFCURVE",
"324.799 530 OFFCURVE",
"255 530 CURVE SMOOTH"
);
}
);
width = 445;
}
);
unicode = 0062;
},
{
glyphname = c;
lastChange = "2018-02-09 15:42:31 +0000";
layers = (
{
layerId = "A1E69DBF-18C0-4169-967F-86875897C8D1";
name = Regular;
paths = (
{
closed = 1;
nodes = (
"255.014 145.29 LINE",
"255.014 126.514 LINE",
"255.027 126.508 LINE",
"255.025 103.65 OFFCURVE",
"244.964 94 OFFCURVE",
"222.514 94 CURVE SMOOTH",
"196.014 94 LINE",
"196.014 0 LINE",
"263.945 0 LINE",
"263.939 0.012207 LINE",
"316.206 0.272461 OFFCURVE",
"350.027 36.3345 OFFCURVE",
"350.027 86.6519 CURVE",
"350.014 86.6621 LINE",
"350.014 145.29 LINE"
);
},
{
closed = 1;
nodes = (
"0 86.6519 LINE SMOOTH",
"0 36.1519 OFFCURVE",
"34.0615 0 OFFCURVE",
"86.6519 0 CURVE SMOOTH",
"154.583 0 LINE",
"154.583 94 LINE",
"127.514 94 LINE SMOOTH",
"105.062 94 OFFCURVE",
"95 103.652 OFFCURVE",
"95 126.514 CURVE SMOOTH",
"95 403.486 LINE SMOOTH",
"95 426.348 OFFCURVE",
"105.062 436 OFFCURVE",
"127.514 436 CURVE SMOOTH",
"154.583 436 LINE",
"154.583 530 LINE",
"86.6519 530 LINE SMOOTH",
"34.0615 530 OFFCURVE",
"0 493.848 OFFCURVE",
"0 443.348 CURVE SMOOTH"
);
},
{
closed = 1;
nodes = (
"255.014 403.486 LINE",
"255.014 384.71 LINE",
"350.014 384.71 LINE",
"350.014 443.338 LINE",
"350.027 443.348 LINE",
"350.027 493.666 OFFCURVE",
"316.206 529.728 OFFCURVE",
"263.939 529.988 CURVE",
"263.945 530 LINE",
"196.014 530 LINE",
"196.014 436 LINE",
"222.514 436 LINE SMOOTH",
"244.964 436 OFFCURVE",
"255.025 426.35 OFFCURVE",
"255.027 403.492 CURVE"
);
}
);
width = 435;
}
);
unicode = 0063;
},
{
glyphname = d;
lastChange = "2018-02-13 15:15:12 +0000";
layers = (
{
layerId = "A1E69DBF-18C0-4169-967F-86875897C8D1";
name = Regular;
paths = (
{
closed = 1;
nodes = (
"95 0 LINE",
"95 530 LINE",
"0 530 LINE",
"0 0 LINE"
);
},
{
closed = 1;
nodes = (
"137 530 LINE",
"137 436 LINE",
"230.362 436 LINE SMOOTH",
"247.8 436 OFFCURVE",
"255.014 429.348 OFFCURVE",
"255.014 411.348 CURVE SMOOTH",
"255.014 118.652 LINE SMOOTH",
"255.014 100.652 OFFCURVE",
"247.8 94 OFFCURVE",
"230.362 94 CURVE SMOOTH",
"137 94 LINE",
"137 0 LINE",
"255 0 LINE SMOOTH",
"324.8 0 OFFCURVE",
"350.014 23.6519 OFFCURVE",
"350.014 95.0132 CURVE SMOOTH",
"350.014 434.986 LINE SMOOTH",
"350.014 506.348 OFFCURVE",
"324.8 530 OFFCURVE",
"255 530 CURVE SMOOTH"
);
}
);
width = 455;
}
);
unicode = 0064;
},
{
glyphname = e;
lastChange = "2018-02-13 15:25:05 +0000";
layers = (
{
layerId = "A1E69DBF-18C0-4169-967F-86875897C8D1";
name = Regular;
paths = (
{
closed = 1;
nodes = (
"95 312 LINE",
"95 530 LINE",
"0 530 LINE",
"0 0 LINE",
"95 0 LINE",
"95 218 LINE",
"229.3 218 LINE",
"229.3 312 LINE"
);
},
{
closed = 1;
nodes = (
"137 530 LINE",
"137 436 LINE",
"330.611 436 LINE",
"330.611 530 LINE"
);
},
{
closed = 1;
nodes = (
"137 0 LINE",
"350.014 0 LINE",
"350.014 94 LINE",
"137 94 LINE"
);
}
);
width = 425;
}
);
unicode = 0065;
},
{
glyphname = f;
lastChange = "2018-02-13 15:25:03 +0000";
layers = (
{
layerId = "A1E69DBF-18C0-4169-967F-86875897C8D1";
name = Regular;
paths = (
{
closed = 1;
nodes = (
"0 530 LINE",
"0 0 LINE",
"95 0 LINE",
"95 218 LINE",
"229 218 LINE",
"229 312 LINE",
"95 312 LINE",
"95 530 LINE"
);
},
{
closed = 1;
nodes = (
"137 436 LINE",
"350 436 LINE",
"350 530 LINE",
"137 530 LINE"
);
}
);
width = 425;
}
);
unicode = 0066;
},
{
glyphname = g;
lastChange = "2018-02-09 15:20:09 +0000";
layers = (
{
layerId = "A1E69DBF-18C0-4169-967F-86875897C8D1";
name = Regular;
paths = (
{
closed = 1;
nodes = (
"175.014 191 LINE",
"255.014 191 LINE",
"255.014 126.514 LINE",
"255.027 126.508 LINE",
"255.026 103.65 OFFCURVE",
"244.964 94 OFFCURVE",
"222.514 94 CURVE SMOOTH",
"196.014 94 LINE",
"196.014 0 LINE",
"263.945 0 LINE",
"263.939 0.012207 LINE",
"316.206 0.272461 OFFCURVE",
"350.027 36.3345 OFFCURVE",
"350.027 86.6519 CURVE",
"350.014 86.6621 LINE",
"350.027 285 LINE",
"175.014 285 LINE"
);
},
{
closed = 1;
nodes = (
"0 86.6519 LINE SMOOTH",
"0 36.1519 OFFCURVE",
"34.0615 0 OFFCURVE",
"86.6519 0 CURVE SMOOTH",
"154.583 0 LINE",
"154.583 94 LINE",
"127.514 94 LINE SMOOTH",
"105.062 94 OFFCURVE",
"95 103.652 OFFCURVE",
"95 126.514 CURVE SMOOTH",
"95 403.486 LINE SMOOTH",
"95 426.348 OFFCURVE",
"105.062 436 OFFCURVE",
"127.514 436 CURVE SMOOTH",
"154.583 436 LINE",
"154.583 530 LINE",
"86.6519 530 LINE SMOOTH",
"34.0615 530 OFFCURVE",
"0 493.848 OFFCURVE",
"0 443.348 CURVE SMOOTH"
);
},
{
closed = 1;
nodes = (
"255.014 403.486 LINE",
"255.014 384.71 LINE",
"350.014 384.71 LINE",
"350.014 443.338 LINE",
"350.027 443.348 LINE",
"350.027 493.666 OFFCURVE",
"316.206 529.728 OFFCURVE",
"263.939 529.988 CURVE",
"263.945 530 LINE",
"196.014 530 LINE",
"196.014 436 LINE",
"222.514 436 LINE SMOOTH",
"244.964 436 OFFCURVE",
"255.026 426.35 OFFCURVE",
"255.027 403.492 CURVE"
);
}
);
width = 445;
}
);
unicode = 0067;
},
{
glyphname = h;
lastChange = "2018-02-09 15:20:09 +0000";
layers = (
{
layerId = "A1E69DBF-18C0-4169-967F-86875897C8D1";
name = Regular;
paths = (
{
closed = 1;
nodes = (
"95 0 LINE",
"95 530 LINE",
"0 530 LINE",
"0 0 LINE"
);
},
{
closed = 1;
nodes = (
"255.012 312 LINE",
"137 312 LINE",
"137 218 LINE",
"255.012 218 LINE",
"255.012 0 LINE",
"350.012 0 LINE",
"350.012 530 LINE",
"255.012 530 LINE"
);
}
);
width = 445;
}
);
unicode = 0068;
},
{
glyphname = i;
lastChange = "2018-02-13 15:27:15 +0000";
layers = (
{
layerId = "A1E69DBF-18C0-4169-967F-86875897C8D1";
name = Regular;
paths = (
{
closed = 1;
nodes = (
"20 530 LINE",
"20 0 LINE",
"115 0 LINE",
"115 530 LINE"
);
}
);
width = 250;
}
);
unicode = 0069;
},
{
glyphname = j;
lastChange = "2018-02-09 15:20:09 +0000";
layers = (
{
layerId = "A1E69DBF-18C0-4169-967F-86875897C8D1";
name = Regular;
paths = (
{
closed = 1;
nodes = (
"350.014 86.6616 LINE",
"350.014 530 LINE",
"255.014 530 LINE",
"255.014 126.514 LINE",
"255.027 126.508 LINE",
"255.025 103.65 OFFCURVE",
"244.964 94 OFFCURVE",
"222.514 94 CURVE SMOOTH",
"196.014 94 LINE",
"196.014 0 LINE",
"263.945 0 LINE",
"263.939 0.012207 LINE",
"316.206 0.272461 OFFCURVE",
"350.027 36.3345 OFFCURVE",
"350.027 86.6519 CURVE"
);
},
{
closed = 1;
nodes = (
"95 182.168 LINE",
"0 182.168 LINE",
"0 86.6519 LINE SMOOTH",
"0 36.1519 OFFCURVE",
"34.0615 0 OFFCURVE",
"86.6519 0 CURVE SMOOTH",
"154.583 0 LINE",
"154.583 94 LINE",
"127.514 94 LINE SMOOTH",
"105.062 94 OFFCURVE",
"95 103.652 OFFCURVE",
"95 126.514 CURVE SMOOTH"
);
}
);
width = 445;
}
);
unicode = 006A;
},
{
glyphname = k;
lastChange = "2018-02-13 15:20:05 +0000";
layers = (
{
layerId = "A1E69DBF-18C0-4169-967F-86875897C8D1";
name = Regular;
paths = (
{
closed = 1;
nodes = (
"95 0 LINE",
"95 530 LINE",
"0 530 LINE",
"0 0 LINE"
);
},
{
closed = 1;
nodes = (
"263.945 312 LINE",
"238.483 312 LINE",
"348.81 530 LINE",
"246.665 530 LINE",
"136.999 312 LINE",
"136.999 280.445 LINE",
"136.999 218 LINE",
"222.514 218 LINE SMOOTH",
"244.964 218 OFFCURVE",
"255.026 208.35 OFFCURVE",
"255.027 185.492 CURVE",
"255.014 185.487 LINE",
"255.014 0 LINE",
"350.014 0 LINE",
"350.014 225.338 LINE",
"350.027 225.349 LINE",
"350.027 275.666 OFFCURVE",
"316.206 311.728 OFFCURVE",
"263.939 311.988 CURVE"
);
}
);
width = 435;
}
);
unicode = 006B;
},
{
glyphname = l;
lastChange = "2018-02-13 15:26:03 +0000";
layers = (
{
layerId = "A1E69DBF-18C0-4169-967F-86875897C8D1";
name = Regular;
paths = (
{
closed = 1;
nodes = (
"95 0 LINE",
"95 530 LINE",
"0 530 LINE",
"0 0 LINE"
);
},
{
closed = 1;
nodes = (
"137 0 LINE",
"350.014 0 LINE",
"350.014 94 LINE",
"137 94 LINE"
);
}
);
width = 425;
}
);
unicode = 006C;
},
{
glyphname = m;
lastChange = "2018-02-09 15:20:21 +0000";
layers = (
{
layerId = "A1E69DBF-18C0-4169-967F-86875897C8D1";
name = Regular;
paths = (
{
closed = 1;
nodes = (
"95 0 LINE",
"95 164.885 LINE",
"0 522.713 LINE",
"0 0 LINE"
);
},
{
closed = 1;
nodes = (
"350 0 LINE",
"445 0 LINE",
"445 501.696 LINE",
"350 145.997 LINE"
);
},
{
closed = 1;
nodes = (
"178.548 0 LINE",
"276.82 0 LINE",
"134.338 530 LINE",
"37.8379 530 LINE"
);
},
{
closed = 1;
nodes = (
"243.099 271.647 LINE",
"291.784 88.2686 LINE",
"409.059 530 LINE",
"312.559 530 LINE"
);
}
);
width = 545;
}
);
unicode = 006D;
},
{
glyphname = n;
lastChange = "2018-02-09 15:42:30 +0000";
layers = (
{
layerId = "A1E69DBF-18C0-4169-967F-86875897C8D1";
name = Regular;
paths = (
{
closed = 1;
nodes = (
"261.914 0 LINE",
"350.014 0 LINE",
"350.014 34.5107 LINE",
"116.76 530 LINE",
"14.1858 530 LINE"
);
},
{
closed = 1;
nodes = (
"95 0 LINE",
"95 266.668 LINE",
"0 469.93 LINE",
"0 0 LINE"
);
},
{
closed = 1;
nodes = (
"255.014 328.192 LINE",
"350.014 125.646 LINE",
"350.014 530 LINE",
"255.014 530 LINE"
);
}
);
width = 465;
}
);
unicode = 006E;
},
{
glyphname = o;
lastChange = "2018-02-13 15:15:20 +0000";
layers = (
{
layerId = "A1E69DBF-18C0-4169-967F-86875897C8D1";
name = Regular;
paths = (
{
closed = 1;
nodes = (
"350.027 443.349 LINE",
"350.027 493.666 OFFCURVE",
"316.206 529.728 OFFCURVE",
"263.939 529.988 CURVE",
"263.945 530 LINE",
"196.014 530 LINE",
"196.014 436 LINE",
"222.514 436 LINE SMOOTH",
"244.642 436 OFFCURVE",
"254.728 426.615 OFFCURVE",
"255.014 404.457 CURVE SMOOTH",
"255.014 403.487 LINE",
"255.014 126.514 LINE",
"255.027 126.508 LINE",
"255.026 103.65 OFFCURVE",
"244.964 94 OFFCURVE",
"222.514 94 CURVE SMOOTH",
"222.514 94 LINE",
"196.014 94 LINE",
"196.014 0 LINE",
"263.945 0 LINE",
"263.939 0.0126953 LINE",
"316.206 0.272461 OFFCURVE",
"350.027 36.3345 OFFCURVE",
"350.027 86.6523 CURVE",
"350.014 86.6621 LINE",
"350.014 443.338 LINE"
);
},
{
closed = 1;
nodes = (
"0 86.6523 LINE SMOOTH",
"0 36.1523 OFFCURVE",
"34.0615 0 OFFCURVE",
"86.6519 0 CURVE",
"86.6519 0 LINE",
"154.583 0 LINE",
"154.583 94 LINE",
"127.514 94 LINE",
"127.514 94 LINE",
"127.514 94 LINE SMOOTH",
"105.062 94 OFFCURVE",
"95 103.652 OFFCURVE",
"95 126.514 CURVE SMOOTH",
"95 403.487 LINE SMOOTH",
"95 426.349 OFFCURVE",
"105.062 436 OFFCURVE",
"127.514 436 CURVE SMOOTH",
"154.583 436 LINE",
"154.583 530 LINE",
"86.6519 530 LINE SMOOTH",
"34.0615 530 OFFCURVE",
"0 493.849 OFFCURVE",
"0 443.349 CURVE SMOOTH"
);
}
);
width = 455;
}
);
unicode = 006F;
},
{
glyphname = p;
lastChange = "2018-02-13 15:20:14 +0000";
layers = (
{
layerId = "A1E69DBF-18C0-4169-967F-86875897C8D1";
name = Regular;
paths = (
{
closed = 1;
nodes = (
"95 0 LINE",
"95 530 LINE",
"0 530 LINE",
"0 0 LINE"
);
},
{
closed = 1;
nodes = (
"137 530 LINE",
"137 436 LINE",
"230 436 LINE SMOOTH",
"248 436 OFFCURVE",
"255 429 OFFCURVE",
"255 411 CURVE SMOOTH",
"255 339 LINE SMOOTH",
"255 321 OFFCURVE",
"248 314 OFFCURVE",
"230 314 CURVE SMOOTH",
"137 314 LINE",
"137 220 LINE",
"255 220 LINE SMOOTH",
"324 220 OFFCURVE",
"350 243 OFFCURVE",
"350 314 CURVE",
"350 314 LINE",
"350 435 LINE SMOOTH",
"350 506 OFFCURVE",
"325 530 OFFCURVE",
"255 530 CURVE SMOOTH"
);
}
);
width = 425;
}
);
unicode = 0070;
},
{
glyphname = q;
lastChange = "2018-02-09 15:20:09 +0000";
layers = (
{
layerId = "A1E69DBF-18C0-4169-967F-86875897C8D1";
name = Regular;
paths = (
{
closed = 1;
nodes = (
"0 87 LINE SMOOTH",
"0 36 OFFCURVE",
"34 0 OFFCURVE",
"87 0 CURVE",
"87 0 LINE",
"155 0 LINE",
"155 94 LINE",
"128 94 LINE",
"128 94 LINE",
"128 94 LINE SMOOTH",
"105 94 OFFCURVE",
"95 104 OFFCURVE",
"95 127 CURVE SMOOTH",
"95 403 LINE SMOOTH",
"95 426 OFFCURVE",
"105 436 OFFCURVE",
"128 436 CURVE SMOOTH",
"155 436 LINE",
"155 530 LINE",
"87 530 LINE SMOOTH",
"34 530 OFFCURVE",
"0 494 OFFCURVE",
"0 443 CURVE SMOOTH"
);
},
{
closed = 1;
nodes = (
"349 72 OFFCURVE",
"350 79 OFFCURVE",
"350 87 CURVE",
"350 87 LINE",
"350 443 LINE",
"350 443 LINE",
"350 494 OFFCURVE",
"316 530 OFFCURVE",
"264 530 CURVE",
"264 530 LINE",
"196 530 LINE",
"196 436 LINE",
"223 436 LINE SMOOTH",
"245 436 OFFCURVE",
"255 427 OFFCURVE",
"255 404 CURVE SMOOTH",
"255 403 LINE",
"255 127 LINE",
"255 127 LINE",
"255 104 OFFCURVE",
"245 94 OFFCURVE",
"223 94 CURVE SMOOTH",
"223 94 LINE",
"196 94 LINE",
"196 0 LINE",
"264 0 LINE",
"264 0 LINE",
"269 0 OFFCURVE",
"273 0 OFFCURVE",
"278 1 CURVE",
"323 -44 LINE",
"389 23 LINE",
"348 65 LINE"
);
}
);
width = 445;
}
);
unicode = 0071;
},
{
glyphname = r;
lastChange = "2018-02-13 15:20:17 +0000";
layers = (
{
layerId = "A1E69DBF-18C0-4169-967F-86875897C8D1";
name = Regular;
paths = (
{
closed = 1;
nodes = (
"95 0 LINE",
"95 530 LINE",
"0 530 LINE",
"0 0 LINE"
);
},
{
closed = 1;
nodes = (
"328.616 224.225 OFFCURVE",
"349.791 249.343 OFFCURVE",
"350.008 313.871 CURVE",
"350.014 313.87 LINE",
"350.014 434.987 LINE SMOOTH",
"350.014 506.349 OFFCURVE",
"324.799 530 OFFCURVE",
"255 530 CURVE SMOOTH",
"137 530 LINE",
"137 436 LINE",
"230.362 436 LINE SMOOTH",
"247.8 436 OFFCURVE",
"255.014 429.349 OFFCURVE",
"255.014 411.349 CURVE SMOOTH",
"255.014 338.509 LINE SMOOTH",
"255.014 320.509 OFFCURVE",
"247.8 313.857 OFFCURVE",
"230.362 313.857 CURVE SMOOTH",
"137 313.857 LINE",
"137 219.857 LINE",
"170.748 219.857 LINE",
"256.047 0 LINE",
"357.417 0 LINE",
"271.895 220.393 LINE"
);
}
);
width = 435;
}
);
unicode = 0072;
},
{
glyphname = s;
lastChange = "2018-02-15 15:45:46 +0000";
layers = (
{
layerId = "A1E69DBF-18C0-4169-967F-86875897C8D1";
name = Regular;
paths = (
{
closed = 1;
nodes = (
"95 218 LINE SMOOTH",
"26 218 OFFCURVE",
"0 241 OFFCURVE",
"0 312 CURVE SMOOTH",
"0 435 LINE SMOOTH",
"0 506 OFFCURVE",
"30 530 OFFCURVE",
"95 530 CURVE SMOOTH",
"263 530 LINE SMOOTH",
"316 530 OFFCURVE",
"350 494 OFFCURVE",
"350 443 CURVE SMOOTH",
"350 393 LINE",
"255 393 LINE",
"255 403 LINE SMOOTH",
"255 426 OFFCURVE",
"245 436 OFFCURVE",
"222 436 CURVE SMOOTH",
"120 436 LINE SMOOTH",
"102 436 OFFCURVE",
"95 429 OFFCURVE",
"95 411 CURVE SMOOTH",
"95 337 LINE SMOOTH",
"95 319 OFFCURVE",
"102 312 OFFCURVE",
"120 312 CURVE SMOOTH",
"154 312 LINE",
"154 218 LINE"
);
},
{
closed = 1;
nodes = (
"196 312 LINE",
"196 218 LINE",
"230 218 LINE SMOOTH",
"248 218 OFFCURVE",
"255 211 OFFCURVE",
"255 193 CURVE SMOOTH",
"255 119 LINE SMOOTH",
"255 101 OFFCURVE",
"248 94 OFFCURVE",
"230 94 CURVE SMOOTH",
"128 94 LINE SMOOTH",
"105 94 OFFCURVE",
"95 104 OFFCURVE",
"95 127 CURVE SMOOTH",
"95 137 LINE",
"0 137 LINE",
"0 87 LINE SMOOTH",
"0 36 OFFCURVE",
"34 0 OFFCURVE",
"87 0 CURVE SMOOTH",
"255 0 LINE SMOOTH",
"325 0 OFFCURVE",
"350 24 OFFCURVE",
"350 95 CURVE SMOOTH",
"350 218 LINE SMOOTH",
"350 289 OFFCURVE",
"324 312 OFFCURVE",
"255 312 CURVE SMOOTH"
);
}
);
width = 435;
}
);
unicode = 0073;
},
{
glyphname = t;
lastChange = "2018-02-13 15:27:54 +0000";
layers = (
{
layerId = "A1E69DBF-18C0-4169-967F-86875897C8D1";
name = Regular;
paths = (
{
closed = 1;
nodes = (
"222.5 0 LINE",
"222.5 393.997 LINE",
"127.5 393.997 LINE",
"127.5 0 LINE"
);
},
{
closed = 1;
nodes = (
"0 436 LINE",
"350 436 LINE",
"350 530 LINE",
"0 530 LINE"
);
}
);
width = 420;
}
);
unicode = 0074;
},
{
glyphname = u;
lastChange = "2018-02-13 15:15:16 +0000";
layers = (
{
layerId = "A1E69DBF-18C0-4169-967F-86875897C8D1";
name = Regular;
paths = (
{
closed = 1;
nodes = (
"350.014 86.6621 LINE",
"350.014 530 LINE",
"255.014 530 LINE",
"255.014 126.514 LINE",
"255.027 126.508 LINE",
"255.026 103.65 OFFCURVE",
"244.964 94 OFFCURVE",
"222.514 94 CURVE SMOOTH",
"222.514 94 LINE",
"196.014 94 LINE",
"196.014 0 LINE",
"263.945 0 LINE",
"263.939 0.0124512 LINE",
"316.206 0.272461 OFFCURVE",
"350.027 36.3345 OFFCURVE",
"350.027 86.6519 CURVE"
);
},
{
closed = 1;
nodes = (
"105.062 94 OFFCURVE",
"95 103.652 OFFCURVE",
"95 126.514 CURVE SMOOTH",
"95 530 LINE",
"0 530 LINE",
"0 86.6519 LINE SMOOTH",
"0 36.1519 OFFCURVE",
"34.0615 0 OFFCURVE",
"86.6519 0 CURVE",
"86.6519 0 LINE",
"154.583 0 LINE",
"154.583 94 LINE",
"127.514 94 LINE SMOOTH"
);
}
);
width = 455;
}
);
unicode = 0075;
},
{
glyphname = v;
lastChange = "2018-02-13 15:21:11 +0000";
layers = (
{
layerId = "A1E69DBF-18C0-4169-967F-86875897C8D1";
name = Regular;
paths = (
{
closed = 1;
nodes = (
"0 498.445 LINE",
"127.5 0 LINE",
"216.067 0 LINE",
"220.005 15.7749 LINE",
"89.8018 530 LINE",
"0 530 LINE"
);
},
{
closed = 1;
nodes = (
"192.042 292.806 LINE",
"241.493 100.776 LINE",
"350 530 LINE",
"251.998 530 LINE"
);
}
);
width = 395;
}
);
unicode = 0076;
},
{
glyphname = w;
lastChange = "2018-02-13 15:22:52 +0000";
layers = (
{
layerId = "A1E69DBF-18C0-4169-967F-86875897C8D1";
name = Regular;
paths = (
{
closed = 1;
nodes = (
"0 498.445 LINE",
"127.5 0 LINE",
"216.067 0 LINE",
"220.005 15.7749 LINE",
"89.8015 530 LINE",
"0 530 LINE"
);
},
{
closed = 1;
nodes = (
"192.042 292.806 LINE",
"241.493 100.776 LINE",
"350 530 LINE",
"251.998 530 LINE"
);
},
{
closed = 1;
nodes = (
"387.698 0 LINE",
"476.266 0 LINE",
"480.203 15.7749 LINE",
"371.188 446.32 LINE",
"322.852 253.507 LINE"
);
},
{
closed = 1;
nodes = (
"452.24 292.806 LINE",
"501.692 100.776 LINE",
"610.198 530 LINE",
"512.196 530 LINE"
);
}
);
width = 670;
}
);
unicode = 0077;
},
{
glyphname = x;
lastChange = "2018-02-13 15:20:27 +0000";
layers = (
{
layerId = "A1E69DBF-18C0-4169-967F-86875897C8D1";
name = Regular;
paths = (
{
closed = 1;
nodes = (
"2.10205 0 LINE",
"106.673 0 LINE",
"358.667 530 LINE",
"253.903 530 LINE"
);
},
{
closed = 1;
nodes = (
"210.336 120.216 LINE",
"267.494 0 LINE",
"372.065 0 LINE",
"262.664 230.272 LINE"
);
},
{
closed = 1;
nodes = (
"104.765 530 LINE",
"0 530 LINE",
"104.022 312 LINE",
"156.061 422.03 LINE"
);
}
);
width = 455;
}
);
unicode = 0078;
},
{
glyphname = y;
lastChange = "2018-02-13 15:20:32 +0000";
layers = (
{
layerId = "A1E69DBF-18C0-4169-967F-86875897C8D1";
name = Regular;
paths = (
{
closed = 1;
nodes = (
"137.851 271.968 LINE",
"137.855 271.967 LINE",
"137.844 271.968 LINE",
"137.844 0 LINE",
"232.844 0 LINE",
"232.844 253.969 LINE",
"379.905 530 LINE",
"275.162 530 LINE"
);
},
{
closed = 1;
nodes = (
"0 530 LINE",
"113.873 316.314 LINE",
"166.834 413.384 LINE",
"104.777 530 LINE"
);
}
);
width = 445;
}
);
unicode = 0079;
},
{
glyphname = z;
lastChange = "2018-02-09 15:21:10 +0000";
layers = (
{
layerId = "A1E69DBF-18C0-4169-967F-86875897C8D1";
name = Regular;
paths = (
{
closed = 1;
nodes = (
"0 94 LINE",
"0 0 LINE",
"53 0 LINE",
"350 436 LINE",
"350 530 LINE",
"305 530 LINE"
);
},
{
closed = 1;
nodes = (
"0 530 LINE",
"0 436 LINE",
"187 436 LINE",
"254 530 LINE"
);
},
{
closed = 1;
nodes = (
"350 0 LINE",
"350 94 LINE",
"168 94 LINE",
"104 0 LINE"
);
}
);
width = 445;
}
);
unicode = 007A;
},
{
glyphname = zero;
lastChange = "2018-02-09 15:24:57 +0000";
layers = (
{
layerId = "A1E69DBF-18C0-4169-967F-86875897C8D1";
name = Regular;
paths = (
{
closed = 1;
nodes = (
"255.027 179.423 LINE SMOOTH",
"255.027 117.467 OFFCURVE",
"231.332 94 OFFCURVE",
"175.014 94 CURVE SMOOTH",
"118.695 94 OFFCURVE",
"95 117.467 OFFCURVE",
"95 179.423 CURVE SMOOTH",
"95 244 LINE",
"0.0136719 244 LINE",
"0 155.405 LINE SMOOTH",
"0 56.8892 OFFCURVE",
"60.6655 0 OFFCURVE",
"175.014 0 CURVE SMOOTH",
"289.362 0 OFFCURVE",
"350.027 56.8892 OFFCURVE",
"350.027 155.405 CURVE",
"350.014 244 LINE",
"255.027 244 LINE"
);
},
{
closed = 1;
nodes = (
"95 350.576 LINE SMOOTH",
"95 412.533 OFFCURVE",
"118.695 436 OFFCURVE",
"175.014 436 CURVE SMOOTH",
"231.332 436 OFFCURVE",
"255.027 412.533 OFFCURVE",
"255.027 350.576 CURVE SMOOTH",
"255.027 287.568 LINE",
"350.014 287.568 LINE",
"350.027 374.595 LINE SMOOTH",
"350.027 473.111 OFFCURVE",
"289.362 530 OFFCURVE",
"175.014 530 CURVE SMOOTH",
"60.6655 530 OFFCURVE",
"0 473.111 OFFCURVE",
"0 374.595 CURVE SMOOTH",
"0.0136719 287.568 LINE",
"95 287.568 LINE"
);
}
);
width = 445;
}
);
unicode = 0030;
},
{
glyphname = one;
lastChange = "2018-02-09 15:25:51 +0000";
layers = (
{
layerId = "A1E69DBF-18C0-4169-967F-86875897C8D1";
name = Regular;
paths = (
{
closed = 1;
nodes = (
"5.29883 530 LINE",
"5.29883 436 LINE",
"100.299 436 LINE",
"100.299 94 LINE",
"0 94 LINE",
"0 0 LINE",
"295.598 0 LINE",
"295.598 94 LINE",
"195.299 94 LINE",
"195.299 530 LINE"
);
}
);
width = 385;
}
);
unicode = 0031;
},
{
glyphname = two;
lastChange = "2018-02-09 15:26:14 +0000";
layers = (
{
layerId = "A1E69DBF-18C0-4169-967F-86875897C8D1";
name = Regular;
paths = (
{
closed = 1;
nodes = (
"196 530 OFFCURVE",
"196 436 OFFCURVE",
"196 436 CURVE",
"230.381 436 OFFCURVE",
"255.027 413.717 OFFCURVE",
"255.027 378.556 CURVE SMOOTH",
"255.027 296.232 OFFCURVE",
"96.3057 180.556 OFFCURVE",
"24.0615 135.859 CURVE",
"170.062 135.857 LINE",
"245 188.556 OFFCURVE",
"350.027 277.372 OFFCURVE",
"350.027 378.556 CURVE SMOOTH",
"350.027 480.889 OFFCURVE",
"290.381 530 OFFCURVE",
"196 530 CURVE SMOOTH"
);
},
{
closed = 1;
nodes = (
"0 350.577 LINE",
"95 350.577 LINE",
"95 376.384 LINE SMOOTH",
"95 412.556 OFFCURVE",
"115.728 436 OFFCURVE",
"154 436 CURVE",
"154 530 LINE",
"39.6528 530 OFFCURVE",
"0 465.903 OFFCURVE",
"0 379.241 CURVE SMOOTH"
);
},
{
closed = 1;
nodes = (
"0 0 LINE",
"350.014 0 LINE",
"350.014 94 LINE",
"0.0136719 94 LINE",
"0 75.9088 LINE"
);
}
);
width = 445;
}
);
unicode = 0032;
},
{
glyphname = three;
lastChange = "2018-02-09 15:26:21 +0000";
layers = (
{
layerId = "A1E69DBF-18C0-4169-967F-86875897C8D1";
name = Regular;
paths = (
{
closed = 1;
nodes = (
"218.617 359.875 OFFCURVE",
"202.808 349.281 OFFCURVE",
"175 349.281 CURVE SMOOTH",
"175 349.281 OFFCURVE",
"175 255.281 OFFCURVE",
"175 255.281 CURVE",
"215.79 255.281 OFFCURVE",
"245.518 231.94 OFFCURVE",
"253.104 194.325 CURVE",
"349.118 194.325 LINE",
"344.785 241.249 OFFCURVE",
"324.741 279.655 OFFCURVE",
"294.414 306.497 CURVE",
"309.606 325.728 OFFCURVE",
"319.1 349.539 OFFCURVE",
"322.162 376.477 CURVE",
"224.958 376.459 LINE"
);
},
{
closed = 1;
nodes = (
"175 536.642 OFFCURVE",
"175 536.642 OFFCURVE",
"175 536.642 CURVE SMOOTH",
"175 536.642 LINE SMOOTH",
"82.0876 536.642 OFFCURVE",
"26.7544 477.961 OFFCURVE",
"26.7544 395.961 CURVE",
"121.754 395.961 LINE",
"121.754 423.295 OFFCURVE",
"137.421 442.642 OFFCURVE",
"175 442.642 CURVE SMOOTH",
"202.807 442.642 OFFCURVE",
"218.616 432.049 OFFCURVE",
"224.958 415.465 CURVE",
"322.161 415.462 LINE",
"314.01 487.107 OFFCURVE",
"260.366 536.642 OFFCURVE",
"175 536.642 CURVE SMOOTH",
"175 536.642 LINE SMOOTH",
"175 536.642 OFFCURVE",
"175 536.642 OFFCURVE",
"175 536.642 CURVE SMOOTH"
);
},
{
closed = 1;
nodes = (
"253.104 154.957 LINE",
"251.736 148.178 OFFCURVE",
"249.65 141.862 OFFCURVE",
"246.909 136.063 CURVE SMOOTH",
"234.443 109.686 OFFCURVE",
"208.438 94 OFFCURVE",
"175 94 CURVE SMOOTH",
"141.562 94 OFFCURVE",
"115.557 109.686 OFFCURVE",
"103.091 136.063 CURVE SMOOTH",
"97.8484 147.155 OFFCURVE",
"95 160.138 OFFCURVE",
"95 174.641 CURVE",
"0 174.641 LINE",
"0 68.6531 OFFCURVE",
"76.4409 0 OFFCURVE",
"175 0 CURVE SMOOTH",
"267.409 0 OFFCURVE",
"340.374 60.0666 OFFCURVE",
"349.12 154.957 CURVE"
);
}
);
width = 445;
}
);
unicode = 0033;
},
{
glyphname = four;
lastChange = "2018-02-09 15:26:34 +0000";
layers = (
{
layerId = "A1E69DBF-18C0-4169-967F-86875897C8D1";
name = Regular;
paths = (
{
closed = 1;
nodes = (
"202.903 530 LINE",
"202.903 221 LINE",
"104.571 221 LINE",
"160.867 326.162 LINE",
"160.903 521.921 LINE",
"0 221 LINE",
"0 127 LINE",
"202.903 127 LINE",
"202.903 0 LINE",
"297.903 0 LINE",
"297.903 127 LINE",
"346.403 127 LINE",
"346.403 221 LINE",
"297.903 221 LINE",
"297.903 530 LINE"
);
}
);
width = 445;
}
);
unicode = 0034;
},
{
glyphname = five;
lastChange = "2018-02-09 15:27:08 +0000";
layers = (
{
layerId = "A1E69DBF-18C0-4169-967F-86875897C8D1";
name = Regular;
paths = (
{
closed = 1;
nodes = (
"196 312 LINE",
"196 218 LINE",
"230 218 LINE SMOOTH",
"248 218 OFFCURVE",
"255 211 OFFCURVE",
"255 193 CURVE SMOOTH",
"255 119 LINE SMOOTH",
"255 101 OFFCURVE",
"248 94 OFFCURVE",
"230 94 CURVE SMOOTH",
"128 94 LINE",
"128 94 LINE",
"128 94 LINE SMOOTH",
"105 94 OFFCURVE",
"95 104 OFFCURVE",
"95 127 CURVE SMOOTH",
"95 137 LINE",
"0 137 LINE",
"0 87 LINE SMOOTH",
"0 36 OFFCURVE",
"34 0 OFFCURVE",
"87 0 CURVE",
"87 0 OFFCURVE",
"87 0 OFFCURVE",
"87 0 CURVE SMOOTH",
"87 0 LINE",
"255 0 LINE SMOOTH",
"325 0 OFFCURVE",
"350 24 OFFCURVE",
"350 95 CURVE SMOOTH",
"350 218 LINE",
"350 218 LINE",
"350 289 OFFCURVE",
"324 312 OFFCURVE",
"255 312 CURVE SMOOTH"
);
},
{
closed = 1;
nodes = (
"348 530 LINE",
"0 530 LINE",
"0 313 LINE",
"0 313 LINE",
"0 242 OFFCURVE",
"25 218 OFFCURVE",
"95 218 CURVE SMOOTH",
"154 218 LINE",
"154 312 LINE",
"120 312 LINE SMOOTH",
"103 312 OFFCURVE",
"95 318 OFFCURVE",
"95 336 CURVE",
"95 436 LINE",
"348 436 LINE"
);
}
);
width = 445;
}
);
unicode = 0035;
},
{
glyphname = six;
lastChange = "2018-02-09 15:27:23 +0000";
layers = (
{
layerId = "A1E69DBF-18C0-4169-967F-86875897C8D1";
name = Regular;
paths = (
{
closed = 1;
nodes = (
"253.103 154.957 LINE",
"245.518 117.341 OFFCURVE",
"215.789 94 OFFCURVE",
"175 94 CURVE SMOOTH",
"134.211 94 OFFCURVE",
"103.6 117.341 OFFCURVE",
"96.0142 154.957 CURVE",
"0 154.957 LINE",
"8.75903 60.0832 OFFCURVE",
"82.6008 0 OFFCURVE",
"175 0 CURVE SMOOTH",
"267.399 0 OFFCURVE",
"340.359 60.0832 OFFCURVE",
"349.117 154.957 CURVE"
);
},
{
closed = 1;
nodes = (
"0 201.204 LINE",
"0.56958 201.204 LINE",
"0.359375 199.447 OFFCURVE",
"0.164551 197.682 OFFCURVE",
"0 195.9 CURVE",
"96.0142 195.9 LINE",
"103.6 233.516 OFFCURVE",
"134.211 256.857 OFFCURVE",
"175 256.857 CURVE SMOOTH",
"215.789 256.857 OFFCURVE",
"245.518 233.516 OFFCURVE",
"253.103 195.9 CURVE",
"349.117 195.9 LINE",
"340.359 290.774 OFFCURVE",
"267.399 350.857 OFFCURVE",
"175 350.857 CURVE SMOOTH",
"146.031 350.857 OFFCURVE",
"118.887 344.949 OFFCURVE",
"95 333.916 CURVE",
"95 364.358 LINE SMOOTH",
"95 378.861 OFFCURVE",
"97.8484 391.844 OFFCURVE",
"103.091 402.936 CURVE SMOOTH",
"115.557 429.313 OFFCURVE",
"141.562 444.999 OFFCURVE",
"175 444.999 CURVE SMOOTH",
"208.438 444.999 OFFCURVE",
"234.443 429.313 OFFCURVE",
"246.909 402.936 CURVE SMOOTH",
"249.65 397.137 OFFCURVE",
"251.736 390.821 OFFCURVE",
"253.104 384.042 CURVE",
"349.12 384.042 LINE",
"340.374 478.932 OFFCURVE",
"267.409 538.999 OFFCURVE",
"175 538.999 CURVE SMOOTH",
"76.4409 538.999 OFFCURVE",
"0 470.346 OFFCURVE",
"0 364.358 CURVE SMOOTH"
);
}
);
width = 445;
}
);
unicode = 0036;
},
{
glyphname = seven;
lastChange = "2018-02-09 15:27:38 +0000";
layers = (
{
layerId = "A1E69DBF-18C0-4169-967F-86875897C8D1";
name = Regular;
paths = (
{
closed = 1;
nodes = (
"348.292 436 LINE",
"348.292 530 LINE",
"0 530 LINE",
"0 436 LINE"
);
},
{
closed = 1;
nodes = (
"20.1006 0 LINE",
"109.037 0 LINE",
"342.129 393.127 LINE",
"236.563 393.127 LINE",
"20.1006 31.5547 LINE"
);
}
);
width = 445;
}
);
unicode = 0037;
},
{
glyphname = eight;
lastChange = "2018-02-09 15:27:48 +0000";
layers = (
{
layerId = "A1E69DBF-18C0-4169-967F-86875897C8D1";
name = Regular;
paths = (
{
closed = 1;
nodes = (
"233.563 109.686 OFFCURVE",
"207.558 94 OFFCURVE",
"174.121 94 CURVE SMOOTH",
"140.682 94 OFFCURVE",
"114.678 109.686 OFFCURVE",
"102.211 136.063 CURVE SMOOTH",
"99.4702 141.862 OFFCURVE",
"97.3843 148.178 OFFCURVE",
"96.0171 154.957 CURVE",
"0 154.957 LINE",
"8.74658 60.0666 OFFCURVE",
"81.7114 0 OFFCURVE",
"174.121 0 CURVE SMOOTH",
"266.529 0 OFFCURVE",
"339.494 60.0666 OFFCURVE",
"348.241 154.957 CURVE",
"252.224 154.957 LINE",
"250.857 148.178 OFFCURVE",
"248.77 141.862 OFFCURVE",
"246.029 136.063 CURVE SMOOTH"
);
},
{
closed = 1;
nodes = (
"120.117 417.879 LINE",
"126.117 437.378 OFFCURVE",
"151.118 447.112 OFFCURVE",
"174.121 447.112 CURVE SMOOTH",
"197.123 447.112 OFFCURVE",
"222.124 437.378 OFFCURVE",
"228.124 417.879 CURVE",
"326.124 417.879 LINE",
"316.577 500.234 OFFCURVE",
"252.332 540.864 OFFCURVE",
"174.121 540.864 CURVE SMOOTH",
"95.9092 540.864 OFFCURVE",
"31.6641 500.234 OFFCURVE",
"22.1172 417.879 CURVE"
);
},
{
closed = 1;
nodes = (
"96.0171 194.325 LINE",
"103.603 231.94 OFFCURVE",
"133.331 255.281 OFFCURVE",
"174.121 255.281 CURVE SMOOTH",
"214.91 255.281 OFFCURVE",
"244.638 231.94 OFFCURVE",
"252.224 194.325 CURVE",
"348.238 194.325 LINE",
"344.002 240.204 OFFCURVE",
"324.751 277.945 OFFCURVE",
"295.551 304.693 CURVE",
"311.757 323.726 OFFCURVE",
"322.623 348.309 OFFCURVE",
"326.124 378.512 CURVE",
"227.413 378.512 LINE",
"218.843 359.518 OFFCURVE",
"197.708 349.306 OFFCURVE",
"174.208 349.28 CURVE SMOOTH",
"174.179 349.28 OFFCURVE",
"174.149 349.281 OFFCURVE",
"174.121 349.281 CURVE SMOOTH",
"174.091 349.281 OFFCURVE",
"174.062 349.28 OFFCURVE",
"174.033 349.28 CURVE SMOOTH",
"150.533 349.306 OFFCURVE",
"129.397 359.518 OFFCURVE",
"120.828 378.512 CURVE",
"22.1172 378.512 LINE",
"25.6182 348.309 OFFCURVE",
"36.4839 323.726 OFFCURVE",
"52.6895 304.693 CURVE",
"23.4888 277.945 OFFCURVE",
"4.23877 240.204 OFFCURVE",
"0.00292969 194.325 CURVE"
);
}
);
width = 445;
}
);
unicode = 0038;
},
{
glyphname = nine;
lastChange = "2018-02-09 15:28:01 +0000";
layers = (
{
layerId = "A1E69DBF-18C0-4169-967F-86875897C8D1";
name = Regular;
paths = (
{
closed = 1;
nodes = (
"245.521 305.483 OFFCURVE",
"214.91 282.142 OFFCURVE",
"174.12 282.142 CURVE SMOOTH",
"133.331 282.142 OFFCURVE",
"103.603 305.483 OFFCURVE",
"96.0171 343.099 CURVE",
"0.00292969 343.099 LINE",
"8.76172 248.225 OFFCURVE",
"81.7212 188.142 OFFCURVE",
"174.12 188.142 CURVE SMOOTH",
"203.09 188.142 OFFCURVE",
"230.233 194.051 OFFCURVE",
"254.12 205.083 CURVE",
"254.12 174.641 LINE SMOOTH",
"254.12 160.138 OFFCURVE",
"251.272 147.155 OFFCURVE",
"246.029 136.063 CURVE SMOOTH",
"233.563 109.686 OFFCURVE",
"207.559 94 OFFCURVE",
"174.12 94 CURVE SMOOTH",
"140.683 94 OFFCURVE",
"114.678 109.686 OFFCURVE",
"102.211 136.063 CURVE SMOOTH",
"99.4707 141.862 OFFCURVE",
"97.3838 148.178 OFFCURVE",
"96.0171 154.957 CURVE",
"0 154.957 LINE",
"8.74658 60.0667 OFFCURVE",
"81.7114 0 OFFCURVE",
"174.12 0 CURVE SMOOTH",
"272.68 0 OFFCURVE",
"349.12 68.6532 OFFCURVE",
"349.12 174.641 CURVE SMOOTH",
"349.12 337.795 LINE",
"348.551 337.795 LINE",
"348.761 339.552 OFFCURVE",
"348.956 341.317 OFFCURVE",
"349.12 343.099 CURVE",
"253.106 343.099 LINE"
);
},
{
closed = 1;
nodes = (
"81.7212 538.999 OFFCURVE",
"8.76172 478.916 OFFCURVE",
"0.00292969 384.042 CURVE",
"96.0171 384.042 LINE",
"103.603 421.658 OFFCURVE",
"133.331 444.999 OFFCURVE",
"174.12 444.999 CURVE SMOOTH",
"214.91 444.999 OFFCURVE",
"245.521 421.658 OFFCURVE",
"253.106 384.042 CURVE",
"349.12 384.042 LINE",
"340.361 478.916 OFFCURVE",
"266.52 538.999 OFFCURVE",
"174.12 538.999 CURVE SMOOTH"
);
}
);
width = 445;
}
);
unicode = 0039;
},
{
glyphname = asterisk;
lastChange = "2018-02-09 15:33:11 +0000";
layers = (
{
layerId = "A1E69DBF-18C0-4169-967F-86875897C8D1";
name = Regular;
paths = (
{
closed = 1;
nodes = (
"232 426 LINE",
"163 326 LINE",
"95 426 LINE",
"47 393 LINE",
"108 304 LINE",
"0 304 LINE",
"0 246 LINE",
"108 246 LINE",
"47 157 LINE",
"95 124 LINE",
"163 224 LINE",
"232 124 LINE",
"280 157 LINE",
"218 246 LINE",
"326 246 LINE",
"326 304 LINE",
"218 304 LINE",
"280 393 LINE"
);
}
);
width = 445;
}
);
unicode = 002A;
},
{
glyphname = bullet;
lastChange = "2018-02-13 15:33:51 +0000";
layers = (
{
layerId = "A1E69DBF-18C0-4169-967F-86875897C8D1";
name = Regular;
paths = (
{
closed = 1;
nodes = (
"0 314 LINE",
"0 176 LINE",
"145 176 LINE",
"145 314 LINE"
);
}
);
width = 370;
}
);
unicode = 2022;
},
{
glyphname = colon;
lastChange = "2018-02-09 15:33:55 +0000";
layers = (
{
layerId = "A1E69DBF-18C0-4169-967F-86875897C8D1";
name = Regular;
paths = (
{
closed = 1;
nodes = (
"94 0 LINE",
"94 94 LINE",
"0 94 LINE",
"0 0 LINE"
);
},
{
closed = 1;
nodes = (
"94 328.021 LINE",
"94 422.022 LINE",
"0 422.022 LINE",
"0 328.021 LINE"
);
}
);
width = 270;
}
);
unicode = 003A;
},
{
glyphname = comma;
lastChange = "2018-02-09 15:47:12 +0000";
layers = (
{
layerId = "A1E69DBF-18C0-4169-967F-86875897C8D1";
name = Regular;
paths = (
{
closed = 1;
nodes = (
"0 95 LINE",
"0 -38 LINE",
"94 1 LINE",
"94 95 LINE"
);
}
);
width = 200;
}
);
unicode = 002C;
},
{
glyphname = ellipsis;
layers = (
{
layerId = "A1E69DBF-18C0-4169-967F-86875897C8D1";
name = Regular;
paths = (
{
closed = 1;
nodes = (
"94 0 LINE",
"94 94 LINE",
"0 94 LINE",
"0 0 LINE"
);
},
{
closed = 1;
nodes = (
"222 0 LINE",
"222 94 LINE",
"128 94 LINE",
"128 0 LINE"
);
},
{
closed = 1;
nodes = (
"350 0 LINE",
"350 94 LINE",
"256 94 LINE",
"256 0 LINE"
);
}
);
width = 445;
}
);
unicode = 2026;
},
{
glyphname = exclam;
lastChange = "2018-02-09 15:34:30 +0000";
layers = (
{
layerId = "A1E69DBF-18C0-4169-967F-86875897C8D1";
name = Regular;
paths = (
{
closed = 1;
nodes = (
"95 94 LINE",
"1 94 LINE",
"1 0 LINE",
"95 0 LINE"
);
},
{
closed = 1;
nodes = (
"0 530 LINE",
"0 172 LINE",
"95 172 LINE",
"95 530 LINE"
);
}
);
width = 270;
}
);
unicode = 0021;
},
{
glyphname = exclamdown;
lastChange = "2018-02-13 15:35:55 +0000";
layers = (
{
layerId = "A1E69DBF-18C0-4169-967F-86875897C8D1";
name = Regular;
paths = (
{
closed = 1;
nodes = (
"2 436 LINE",
"96 436 LINE",
"97 530 LINE",
"3 530 LINE"
);
},
{
closed = 1;
nodes = (
"99 0 LINE",
"97 358 LINE",
"2 358 LINE",
"4 0 LINE"
);
}
);
width = 270;
}
);
unicode = 00A1;
},
{
glyphname = numbersign;
lastChange = "2018-02-09 15:34:43 +0000";
layers = (
{
layerId = "A1E69DBF-18C0-4169-967F-86875897C8D1";
name = Regular;
paths = (
{
closed = 1;
nodes = (
"220.985 323.346 LINE",
"201.803 183.318 LINE",
"0 183.318 LINE",
"0 105.318 LINE",
"34.5664 105.318 LINE",
"20.0127 0 LINE",
"99.0127 0 LINE",
"113.566 105.318 LINE",
"191.117 105.318 LINE",
"176.69 0 LINE",
"255.69 0 LINE",
"270.118 105.318 LINE",
"348.779 105.318 LINE",
"348.779 183.318 LINE",
"280.803 183.318 LINE",
"299.985 323.346 LINE"
);
},
{
closed = 1;
nodes = (
"249.337 530 LINE",
"235.978 443.346 LINE",
"160.189 443.346 LINE",
"171.66 530 LINE",
"92.6602 530 LINE",
"81.1895 443.346 LINE",
"0 443.346 LINE",
"0 365.346 LINE",
"70.8643 365.346 LINE",
"52.3276 225.318 LINE",
"131.328 225.318 LINE",
"149.864 365.346 LINE",
"348.779 365.346 LINE",
"348.779 443.346 LINE",
"314.978 443.346 LINE",
"328.337 530 LINE"
);
}
);
width = 445;
}
);
unicode = 0023;
},
{
glyphname = period;
lastChange = "2018-02-09 15:47:12 +0000";
layers = (
{
layerId = "A1E69DBF-18C0-4169-967F-86875897C8D1";
name = Regular;
paths = (
{
closed = 1;
nodes = (
"0 94 LINE",
"0 0 LINE",
"94 0 LINE",
"94 94 LINE"
);
}
);
width = 200;
}
);
unicode = 002E;
},
{
glyphname = question;
lastChange = "2018-02-13 15:31:48 +0000";
layers = (
{
layerId = "A1E69DBF-18C0-4169-967F-86875897C8D1";
name = Regular;
paths = (
{
closed = 1;
nodes = (
"86.6517 530 LINE",
"86.6519 530 LINE SMOOTH",
"86.6519 530 OFFCURVE",
"86.6519 530 OFFCURVE",
"86.6519 530 CURVE SMOOTH",
"34.0615 530 OFFCURVE",
"0 493.848 OFFCURVE",
"0 443.348 CURVE SMOOTH",
"0 393 LINE",
"95 393 LINE",
"95 403.486 LINE SMOOTH",
"95 426.348 OFFCURVE",
"105.062 436 OFFCURVE",
"127.514 436 CURVE",
"127.513 436 LINE",
"127.514 436 LINE",
"230.348 436 LINE SMOOTH",
"247.786 436 OFFCURVE",
"255 429.348 OFFCURVE",
"255 411.348 CURVE SMOOTH",
"255 336.652 LINE SMOOTH",
"255 318.652 OFFCURVE",
"247.786 312 OFFCURVE",
"230.348 312 CURVE SMOOTH",
"222.5 312 LINE",
"196 312 LINE",
"127.5 312 LINE",
"127.5 144.414 LINE",
"222.5 144.414 LINE",
"222.5 218 LINE",
"254.986 218 LINE SMOOTH",
"324.456 218 OFFCURVE",
"349.757 241.436 OFFCURVE",
"349.994 312.014 CURVE",
"350 312.012 LINE",
"350 434.986 LINE SMOOTH",
"350 506.348 OFFCURVE",
"324.786 530 OFFCURVE",
"254.986 530 CURVE SMOOTH"
);
},
{
closed = 1;
nodes = (
"128 0 LINE",
"222 0 LINE",
"222 94 LINE",
"128 94 LINE"
);
}
);
width = 445;
}
);
unicode = 003F;
},
{
glyphname = questiondown;
lastChange = "2018-02-13 15:32:41 +0000";
layers = (
{
layerId = "A1E69DBF-18C0-4169-967F-86875897C8D1";
name = Regular;
paths = (
{
closed = 1;
nodes = (
"269 4 LINE",
"269 4 LINE SMOOTH",
"269 4 OFFCURVE",
"269 4 OFFCURVE",
"269 4 CURVE SMOOTH",
"322 5 OFFCURVE",
"355 42 OFFCURVE",
"354 93 CURVE SMOOTH",
"353 143 LINE",
"258 141 LINE",
"258 131 LINE SMOOTH",
"259 108 OFFCURVE",
"249 98 OFFCURVE",
"226 98 CURVE",
"226 98 LINE",
"226 98 LINE",
"124 96 LINE SMOOTH",
"106 96 OFFCURVE",
"99 102 OFFCURVE",
"99 120 CURVE SMOOTH",
"97 194 LINE SMOOTH",
"97 212 OFFCURVE",
"104 220 OFFCURVE",
"122 220 CURVE SMOOTH",
"129 220 LINE",
"156 220 LINE",
"224 222 LINE",
"221 390 LINE",
"126 388 LINE",
"127 314 LINE",
"95 313 LINE SMOOTH",
"26 312 OFFCURVE",
"0 289 OFFCURVE",
"2 218 CURVE",
"2 218 LINE",
"4 95 LINE SMOOTH",
"5 24 OFFCURVE",
"31 0 OFFCURVE",
"101 1 CURVE SMOOTH"
);
},
{
closed = 1;
nodes = (
"218 534 LINE",
"124 532 LINE",
"126 438 LINE",
"220 440 LINE"
);
}
);
width = 445;
}
);
unicode = 00BF;
},
{
glyphname = quotedbl;
lastChange = "2018-02-13 15:52:23 +0000";
layers = (
{
layerId = "A1E69DBF-18C0-4169-967F-86875897C8D1";
name = Regular;
paths = (
{
closed = 1;
nodes = (
"0 530 LINE",
"0 398 LINE",
"94 436 LINE",
"94 530 LINE"
);
},
{
closed = 1;
nodes = (
"176 530 LINE",
"176 398 LINE",
"270 436 LINE",
"270 530 LINE"
);
}
);
width = 330;
}
);
unicode = 0022;
},
{
glyphname = quotesingle;
lastChange = "2018-02-13 15:52:26 +0000";
layers = (
{
layerId = "A1E69DBF-18C0-4169-967F-86875897C8D1";
name = Regular;
paths = (
{
closed = 1;
nodes = (
"0 530 LINE",
"0 397 LINE",
"94 436 LINE",
"94 530 LINE"
);
}
);
width = 180;
}
);
unicode = 0027;
},
{
glyphname = semicolon;
lastChange = "2018-02-09 15:35:38 +0000";
layers = (
{
layerId = "A1E69DBF-18C0-4169-967F-86875897C8D1";
name = Regular;
paths = (
{
closed = 1;
nodes = (
"0 422 LINE",
"0 328 LINE",
"94 328 LINE",
"94 422 LINE"
);
},
{
closed = 1;
nodes = (
"94 0 LINE",
"94 94 LINE",
"0 94 LINE",
"0 -38 LINE"
);
}
);
width = 270;
}
);
unicode = 003B;
},
{
glyphname = slash;
lastChange = "2018-02-09 15:36:00 +0000";
layers = (
{
layerId = "A1E69DBF-18C0-4169-967F-86875897C8D1";
name = Regular;
paths = (
{
closed = 1;
nodes = (
"0 31.5547 LINE",
"0 0 LINE",
"88.936 0 LINE",
"328.065 530 LINE",
"222.499 530 LINE"
);
}
);
width = 445;
}
);
unicode = 002F;
},
{
glyphname = underscore;
lastChange = "2018-02-13 15:30:11 +0000";
layers = (
{
layerId = "A1E69DBF-18C0-4169-967F-86875897C8D1";
name = Regular;
paths = (
{
closed = 1;
nodes = (
"360 0 LINE",
"360 94 LINE",
"0 94 LINE",
"0 0 LINE"
);
}
);
width = 600;
}
);
unicode = 005F;
},
{
glyphname = parenleft;
lastChange = "2018-02-13 15:53:29 +0000";
layers = (
{
layerId = "A1E69DBF-18C0-4169-967F-86875897C8D1";
name = Regular;
paths = (
{
closed = 1;
nodes = (
"0 115 LINE SMOOTH",
"0 17 OFFCURVE",
"61 -40 OFFCURVE",
"175 -40 CURVE",
"175 -40 OFFCURVE",
"175 54 OFFCURVE",
"175 54 CURVE SMOOTH",
"119 54 OFFCURVE",
"95 77 OFFCURVE",
"95 139 CURVE SMOOTH",
"95 391 LINE SMOOTH",
"95 453 OFFCURVE",
"119 476 OFFCURVE",
"175 476 CURVE",
"175 476 OFFCURVE",
"175 570 OFFCURVE",
"175 570 CURVE SMOOTH",
"61 570 OFFCURVE",
"0 513 OFFCURVE",
"0 415 CURVE SMOOTH"
);
}
);
width = 290;
}
);
unicode = 0028;
},
{
glyphname = parenright;
lastChange = "2018-02-13 15:53:28 +0000";
layers = (
{
layerId = "A1E69DBF-18C0-4169-967F-86875897C8D1";
name = Regular;
paths = (
{
closed = 1;
nodes = (
"0 570 OFFCURVE",
"0 476 OFFCURVE",
"0 476 CURVE",
"56 476 OFFCURVE",
"80 453 OFFCURVE",
"80 391 CURVE SMOOTH",
"80 139 LINE SMOOTH",
"80 77 OFFCURVE",
"56 54 OFFCURVE",
"0 54 CURVE SMOOTH",
"0 54 OFFCURVE",
"0 -40 OFFCURVE",
"0 -40 CURVE",
"114 -40 OFFCURVE",
"175 17 OFFCURVE",
"175 115 CURVE SMOOTH",
"175 415 LINE SMOOTH",
"175 513 OFFCURVE",
"114 570 OFFCURVE",
"0 570 CURVE SMOOTH"
);
}
);
width = 290;
}
);
unicode = 0029;
},
{
glyphname = emdash;
lastChange = "2018-02-09 15:44:49 +0000";
layers = (
{
layerId = "A1E69DBF-18C0-4169-967F-86875897C8D1";
name = Regular;
paths = (
{
closed = 1;
nodes = (
"360 228 LINE",
"360 322 LINE",
"0 322 LINE",
"0 228 LINE"
);
}
);
width = 445;
}
);
unicode = 2014;
},
{
glyphname = hyphen;
lastChange = "2018-02-13 15:52:34 +0000";
layers = (
{
layerId = "A1E69DBF-18C0-4169-967F-86875897C8D1";
name = Regular;
paths = (
{
closed = 1;
nodes = (
"0 312 LINE",
"0 234 LINE",
"281 234 LINE",
"281 312 LINE"
);
}
);
width = 365;
}
);
unicode = 002D;
},
{
glyphname = quotedblleft;
layers = (
{
layerId = "A1E69DBF-18C0-4169-967F-86875897C8D1";
name = Regular;
paths = (
{
closed = 1;
nodes = (
"270 436 LINE",
"270 568 LINE",
"176 530 LINE",
"176 436 LINE"
);
},
{
closed = 1;
nodes = (
"94 436 LINE",
"94 568 LINE",
"0 530 LINE",
"0 436 LINE"
);
}
);
width = 360;
}
);
unicode = 201C;
},
{
glyphname = quotedblright;
layers = (
{
layerId = "A1E69DBF-18C0-4169-967F-86875897C8D1";
name = Regular;
paths = (
{
closed = 1;
nodes = (
"0 530 LINE",
"0 398 LINE",
"94 436 LINE",
"94 530 LINE"
);
},
{
closed = 1;
nodes = (
"176 530 LINE",
"176 398 LINE",
"270 436 LINE",
"270 530 LINE"
);
}
);
width = 400;
}
);
unicode = 201D;
},
{
glyphname = quoteleft;
lastChange = "2018-02-13 15:41:37 +0000";
layers = (
{
layerId = "A1E69DBF-18C0-4169-967F-86875897C8D1";
name = Regular;
paths = (
{
closed = 1;
nodes = (
"94 436 LINE",
"94 568 LINE",
"0 530 LINE",
"0 436 LINE"
);
}
);
width = 180;
}
);
unicode = 2018;
},
{
glyphname = quoteright;
lastChange = "2018-02-13 15:41:46 +0000";
layers = (
{
layerId = "A1E69DBF-18C0-4169-967F-86875897C8D1";
name = Regular;
paths = (
{
closed = 1;
nodes = (
"0 530 LINE",
"0 398 LINE",
"94 436 LINE",
"94 530 LINE"
);
}
);
width = 180;
}
);
unicode = 2019;
},
{
glyphname = dollar;
lastChange = "2018-02-09 15:46:21 +0000";
layers = (
{
layerId = "A1E69DBF-18C0-4169-967F-86875897C8D1";
name = Regular;
paths = (
{
closed = 1;
nodes = (
"263 530 OFFCURVE",
"263 530 OFFCURVE",
"263 530 CURVE SMOOTH",
"263 530 LINE",
"222 530 LINE",
"222 577 LINE",
"128 577 LINE",
"128 530 LINE",
"95 530 LINE SMOOTH",
"25 530 OFFCURVE",
"0 506 OFFCURVE",
"0 435 CURVE SMOOTH",
"0 312 LINE",
"0 312 LINE",
"0 241 OFFCURVE",
"26 218 OFFCURVE",
"95 218 CURVE SMOOTH",
"154 218 LINE",
"154 312 LINE",
"120 312 LINE SMOOTH",
"102 312 OFFCURVE",
"95 319 OFFCURVE",
"95 337 CURVE SMOOTH",
"95 411 LINE SMOOTH",
"95 429 OFFCURVE",
"102 436 OFFCURVE",
"120 436 CURVE SMOOTH",
"195 436 LINE",
"213 436 LINE",
"222 436 LINE",
"222 436 LINE",
"222 436 LINE",
"245 436 OFFCURVE",
"255 426 OFFCURVE",
"255 403 CURVE SMOOTH",
"255 393 LINE",
"350 393 LINE",
"350 443 LINE SMOOTH",
"350 494 OFFCURVE",
"316 530 OFFCURVE",
"263 530 CURVE SMOOTH"
);
},
{
closed = 1;
nodes = (
"196 312 LINE",
"196 218 LINE",
"230 218 LINE SMOOTH",
"248 218 OFFCURVE",
"255 211 OFFCURVE",
"255 193 CURVE SMOOTH",
"255 119 LINE SMOOTH",
"255 101 OFFCURVE",
"248 94 OFFCURVE",
"230 94 CURVE SMOOTH",
"155 94 LINE",
"137 94 LINE",
"128 94 LINE",
"128 94 LINE",
"128 94 LINE SMOOTH",
"105 94 OFFCURVE",
"95 104 OFFCURVE",
"95 127 CURVE SMOOTH",
"95 137 LINE",
"0 137 LINE",
"0 87 LINE SMOOTH",
"0 36 OFFCURVE",
"34 0 OFFCURVE",
"87 0 CURVE",
"87 0 LINE",
"87 0 LINE",
"128 0 LINE",
"128 -47 LINE",
"222 -47 LINE",
"222 0 LINE",
"255 0 LINE SMOOTH",
"325 0 OFFCURVE",
"350 24 OFFCURVE",
"350 95 CURVE SMOOTH",
"350 218 LINE",
"350 218 LINE",
"350 289 OFFCURVE",
"324 312 OFFCURVE",
"255 312 CURVE SMOOTH"
);
}
);
width = 445;
}
);
unicode = 0024;
},
{
glyphname = divide;
lastChange = "2018-02-13 15:54:26 +0000";
layers = (
{
layerId = "A1E69DBF-18C0-4169-967F-86875897C8D1";
name = Regular;
paths = (
{
closed = 1;
nodes = (
"0 312 LINE",
"0 234 LINE",
"350 234 LINE",
"350 312 LINE"
);
},
{
closed = 1;
nodes = (
"222 388 LINE",
"222 482 LINE",
"128 482 LINE",
"128 388 LINE"
);
},
{
closed = 1;
nodes = (
"222 64 LINE",
"222 158 LINE",
"128 158 LINE",
"128 64 LINE"
);
}
);
width = 440;
}
);
unicode = 00F7;
},
{
glyphname = equal;
lastChange = "2018-02-13 15:50:24 +0000";
layers = (
{
layerId = "A1E69DBF-18C0-4169-967F-86875897C8D1";
name = Regular;
paths = (
{
closed = 1;
nodes = (
"40 382 LINE",
"40 304 LINE",
"390 304 LINE",
"390 382 LINE"
);
},
{
closed = 1;
nodes = (
"40 230 LINE",
"40 152 LINE",
"390 152 LINE",
"390 230 LINE"
);
}
);
width = 530;
}
);
unicode = 003D;
},
{
glyphname = greater;
lastChange = "2018-02-13 15:59:12 +0000";
layers = (
{
layerId = "A1E69DBF-18C0-4169-967F-86875897C8D1";
name = Regular;
paths = (
{
closed = 1;
nodes = (
"0 360 LINE",
"179 293 LINE",
"290 335 LINE",
"0 443 LINE"
);
},
{
closed = 1;
nodes = (
"0 97 LINE",
"350 229 LINE",
"350 312 LINE",
"0 181 LINE"
);
}
);
width = 430;
}
);
unicode = 003E;
},
{
glyphname = greaterequal;
lastChange = "2018-02-13 15:58:24 +0000";
layers = (
{
layerId = "A1E69DBF-18C0-4169-967F-86875897C8D1";
name = Regular;
paths = (
{
closed = 1;
nodes = (
"0 443 LINE",
"179 376 LINE",
"290 418 LINE",
"0 527 LINE"
);
},
{
closed = 1;
nodes = (
"0 181 LINE",
"350 312 LINE",
"350 395 LINE",
"0 264 LINE"
);
},
{
closed = 1;
nodes = (
"0 145 LINE",
"0 67 LINE",
"350 67 LINE",
"350 145 LINE"
);
}
);
width = 600;
}
);
unicode = 2265;
},
{
glyphname = less;
lastChange = "2018-02-13 15:59:20 +0000";
layers = (
{
layerId = "A1E69DBF-18C0-4169-967F-86875897C8D1";
name = Regular;
paths = (
{
closed = 1;
nodes = (
"350 360 LINE",
"172 293 LINE",
"61 335 LINE",
"350 443 LINE"
);
},
{
closed = 1;
nodes = (
"350 97 LINE",
"0 229 LINE",
"0 312 LINE",
"350 181 LINE"
);
}
);
width = 430;
}
);
unicode = 003C;
},
{
glyphname = lessequal;
lastChange = "2018-02-13 15:59:00 +0000";
layers = (
{
layerId = "A1E69DBF-18C0-4169-967F-86875897C8D1";
name = Regular;
paths = (
{
closed = 1;
nodes = (
"350 424 LINE",
"171 357 LINE",
"60 399 LINE",
"350 507 LINE"
);
},
{
closed = 1;
nodes = (
"350 161 LINE",
"0 293 LINE",
"0 376 LINE",
"350 245 LINE"
);
},
{
closed = 1;
nodes = (
"350 126 LINE",
"350 48 LINE",
"0 48 LINE",
"0 126 LINE"
);
}
);
width = 600;
}
);
unicode = 2264;
},
{
glyphname = minus;
lastChange = "2018-02-13 15:45:32 +0000";
layers = (
{
layerId = "A1E69DBF-18C0-4169-967F-86875897C8D1";
name = Regular;
paths = (
{
closed = 1;
nodes = (
"270 216 LINE",
"272 310 LINE",
"1 314 LINE",
"0 220 LINE"
);
}
);
width = 360;
}
);
unicode = 2212;
},
{
glyphname = multiply;
lastChange = "2018-02-13 15:52:12 +0000";
layers = (
{
layerId = "A1E69DBF-18C0-4169-967F-86875897C8D1";
name = Regular;
paths = (
{
closed = 1;
nodes = (
"206 388 LINE",
"131 312 LINE",
"55 388 LINE",
"0 333 LINE",
"76 257 LINE",
"0 181 LINE",
"55 126 LINE",
"131 202 LINE",
"206 126 LINE",
"262 181 LINE",
"186 257 LINE",
"262 333 LINE"
);
}
);
width = 400;
}
);
unicode = 00D7;
},
{
glyphname = notequal;
lastChange = "2018-02-13 16:02:07 +0000";
layers = (
{
layerId = "A1E69DBF-18C0-4169-967F-86875897C8D1";
name = Regular;
paths = (
{
closed = 1;
nodes = (
"0 392 LINE",
"0 314 LINE",
"350 314 LINE",
"350 392 LINE"
);
},
{
closed = 1;
nodes = (
"0 240 LINE",
"0 162 LINE",
"350 162 LINE",
"350 240 LINE"
);
},
{
closed = 1;
nodes = (
"33 102 LINE",
"33 78 LINE",
"110 78 LINE",
"350 476 LINE",
"258 476 LINE"
);
}
);
width = 430;
}
);
unicode = 2260;
},
{
glyphname = percent;
lastChange = "2018-02-09 15:36:56 +0000";
layers = (
{
layerId = "A1E69DBF-18C0-4169-967F-86875897C8D1";
name = Regular;
paths = (
{
closed = 1;
nodes = (
"0 0 LINE",
"88.936 0 LINE",
"328.065 530 LINE",
"222.5 530 LINE",
"0 31.5547 LINE"
);
},
{
closed = 1;
nodes = (
"323.021 67.6729 LINE",
"323.021 161.673 LINE",
"229.021 161.673 LINE",
"229.021 67.6729 LINE"
);
},
{
closed = 1;
nodes = (
"109.033 395.093 LINE",
"109.033 489.093 LINE",
"15.033 489.093 LINE",
"15.033 395.093 LINE"
);
}
);
width = 445;
}
);
unicode = 0025;
},
{
glyphname = plus;
lastChange = "2018-02-13 15:50:13 +0000";
layers = (
{
layerId = "A1E69DBF-18C0-4169-967F-86875897C8D1";
name = Regular;
paths = (
{
closed = 1;
nodes = (
"211 312 LINE",
"211 419 LINE",
"133 419 LINE",
"133 312 LINE",
"26 312 LINE",
"26 234 LINE",
"133 234 LINE",
"133 127 LINE",
"211 127 LINE",
"211 234 LINE",
"318 234 LINE",
"318 312 LINE"
);
}
);
width = 450;
}
);
unicode = 002B;
},
{
glyphname = at;
lastChange = "2018-02-09 15:30:38 +0000";
layers = (
{
layerId = "A1E69DBF-18C0-4169-967F-86875897C8D1";
name = Regular;
paths = (
{
closed = 1;
nodes = (
"160 355 LINE",
"160 406 LINE",
"135 406 LINE SMOOTH",
"106 406 OFFCURVE",
"88 386 OFFCURVE",
"88 359 CURVE SMOOTH",
"88 163 LINE SMOOTH",
"88 135 OFFCURVE",
"106 116 OFFCURVE",
"135 116 CURVE",
"135 116 LINE",
"160 116 LINE",
"160 167 LINE",
"157 167 LINE SMOOTH",
"145 167 OFFCURVE",
"139 172 OFFCURVE",
"139 184 CURVE SMOOTH",
"139 337 LINE SMOOTH",
"139 349 OFFCURVE",
"145 355 OFFCURVE",
"157 355 CURVE SMOOTH"
);
},
{
closed = 1;
nodes = (
"190 530 LINE",
"190 479 LINE",
"223 479 LINE SMOOTH",
"267 479 OFFCURVE",
"297 454 OFFCURVE",
"297 420 CURVE SMOOTH",
"297 179 LINE SMOOTH",
"297 169 OFFCURVE",
"290 164 OFFCURVE",
"280 164 CURVE SMOOTH",
"266 164 OFFCURVE",
"261 172 OFFCURVE",
"261 188 CURVE SMOOTH",
"261 359 LINE SMOOTH",
"261 386 OFFCURVE",
"242 406 OFFCURVE",
"214 406 CURVE SMOOTH",
"190 406 LINE",
"190 355 LINE",
"191 355 LINE SMOOTH",
"204 355 OFFCURVE",
"209 349 OFFCURVE",
"209 337 CURVE SMOOTH",
"209 181 LINE SMOOTH",
"209 173 OFFCURVE",
"203 167 OFFCURVE",
"195 167 CURVE SMOOTH",
"189 167 LINE",
"189 116 LINE",
"204 116 LINE SMOOTH",
"219 116 OFFCURVE",
"231 123 OFFCURVE",
"236 135 CURVE",
"245 123 OFFCURVE",
"265 116 OFFCURVE",
"283 116 CURVE SMOOTH",
"324 116 OFFCURVE",
"349 138 OFFCURVE",
"349 173 CURVE SMOOTH",
"349 438 LINE SMOOTH",
"349 495 OFFCURVE",
"295 530 OFFCURVE",
"237 530 CURVE SMOOTH"
);
},
{
closed = 1;
nodes = (
"51 418 LINE SMOOTH",
"51 453 OFFCURVE",
"74 477 OFFCURVE",
"118 477 CURVE SMOOTH",
"160 477 LINE",
"160 528 LINE",
"104 528 LINE",
"104 528 LINE SMOOTH",
"46 528 OFFCURVE",
"0 493 OFFCURVE",
"0 437 CURVE SMOOTH",
"0 103 LINE SMOOTH",
"0 47 OFFCURVE",
"46 0 OFFCURVE",
"104 0 CURVE SMOOTH",
"310 0 LINE",
"310 51 LINE",
"133 51 LINE SMOOTH",
"75 51 OFFCURVE",
"51 75 OFFCURVE",
"51 132 CURVE SMOOTH"
);
}
);
width = 445;
}
);
unicode = 0040;
},
{
glyphname = ampersand;
lastChange = "2018-02-09 15:30:51 +0000";
layers = (
{
layerId = "A1E69DBF-18C0-4169-967F-86875897C8D1";
name = Regular;
paths = (
{
closed = 1;
nodes = (
"224.449 288.325 LINE",
"224.449 194.325 LINE",
"252.457 194.325 LINE",
"252.457 162.869 LINE SMOOTH",
"252.457 124.869 OFFCURVE",
"224.449 94 OFFCURVE",
"174.12 94 CURVE SMOOTH",
"140.683 94 OFFCURVE",
"114.678 109.686 OFFCURVE",
"102.211 136.063 CURVE SMOOTH",
"99.4707 141.862 OFFCURVE",
"97.3838 148.178 OFFCURVE",
"96.0171 154.957 CURVE",
"0 154.957 LINE",
"8.74658 60.0667 OFFCURVE",
"81.7114 0 OFFCURVE",
"174.12 0 CURVE SMOOTH",
"266.52 0 OFFCURVE",
"339.479 60.3396 OFFCURVE",
"348.238 155.213 CURVE",
"348.238 194.325 LINE",
"380.552 194.325 LINE",
"380.552 288.325 LINE"
);
},
{
closed = 1;
nodes = (
"322.366 395.961 LINE",
"322.366 477.961 OFFCURVE",
"267.033 536.642 OFFCURVE",
"174.12 536.642 CURVE SMOOTH",
"174.12 536.642 LINE",
"174.12 536.642 LINE",
"174.12 536.642 LINE",
"174.12 536.642 LINE SMOOTH",
"88.7539 536.642 OFFCURVE",
"35.1108 487.107 OFFCURVE",
"26.96 415.462 CURVE",
"124.163 415.465 LINE",
"130.504 432.049 OFFCURVE",
"146.313 442.642 OFFCURVE",
"174.12 442.642 CURVE SMOOTH",
"211.699 442.642 OFFCURVE",
"227.366 423.295 OFFCURVE",
"227.366 395.961 CURVE"
);
},
{
closed = 1;
nodes = (
"96.0171 194.325 LINE",
"103.603 231.94 OFFCURVE",
"133.331 255.281 OFFCURVE",
"174.12 255.281 CURVE",
"174.12 255.281 OFFCURVE",
"174.12 349.281 OFFCURVE",
"174.12 349.281 CURVE SMOOTH",
"146.313 349.281 OFFCURVE",
"130.503 359.875 OFFCURVE",
"124.162 376.459 CURVE",
"26.958 376.477 LINE",
"30.02 349.539 OFFCURVE",
"39.5146 325.728 OFFCURVE",
"54.7065 306.498 CURVE",
"24.3794 279.655 OFFCURVE",
"4.33496 241.249 OFFCURVE",
"0.00292969 194.325 CURVE"
);
}
